SplineFontDB: 3.2
FontName: Tisna-Bold
FullName: Tisna Bold
FamilyName: Tisna
Weight: Bold
Copyright: Licensed under the SIL Open Font License, Version 1.1 (http://scripts.sil.org/OFL). Created by Jack Humbert 2020.
Version: 0.1; 2019-08-03; http://www.latofonts.com/
ItalicAngle: 0
UnderlinePosition: -251
UnderlineWidth: 43
Ascent: 750
Descent: 250
InvalidEm: 0
sfntRevision: 0x0000199a
LayerCount: 2
Layer: 0 0 "Back" 1
Layer: 1 0 "Fore" 0
XUID: [1021 647 -312734098 17743]
StyleMap: 0x0040
FSType: 0
OS2Version: 4
OS2_WeightWidthSlopeOnly: 0
OS2_UseTypoMetrics: 0
CreationTime: 1438840825
ModificationTime: 1590423390
PfmFamily: 33
TTFWeight: 400
TTFWidth: 5
LineGap: 0
VLineGap: 0
Panose: 2 15 5 2 2 2 4 3 2 3
OS2TypoAscent: 750
OS2TypoAOffset: 0
OS2TypoDescent: -250
OS2TypoDOffset: 0
OS2TypoLinegap: 198
OS2WinAscent: 816
OS2WinAOffset: 0
OS2WinDescent: 313
OS2WinDOffset: 0
HheadAscent: 750
HheadAOffset: 0
HheadDescent: -250
HheadDOffset: 0
OS2SubXSize: 692
OS2SubYSize: 642
OS2SubXOff: 0
OS2SubYOff: 138
OS2SupXSize: 692
OS2SupYSize: 642
OS2SupXOff: 0
OS2SupYOff: 471
OS2StrikeYSize: 44
OS2StrikeYPos: 272
OS2CapHeight: 750
OS2XHeight: 500
OS2Vendor: 'JH  '
OS2CodePages: 2002019f.00000000
OS2UnicodeRanges: 80000001.10000002.00000000.00000000
Lookup: 4 0 1 "zlmFF" { "zlmFF subtable"  } ['liga' ('latn' <'dflt' > 'DFLT' <'dflt' > ) ]
Lookup: 4 0 1 "zlmSFF" { "zlmSFF subtable"  } ['liga' ('latn' <'dflt' > 'DFLT' <'dflt' > ) ]
Lookup: 4 0 1 "zlmSF" { "zlmSF subtable"  } ['liga' ('latn' <'dflt' > 'DFLT' <'dflt' > ) ]

StartChar: exclam
Encoding: 1 33 1
Width: 265
VWidth: 988
Flags: W
HStem: -7 124<85.3302 177.735>
VStem: 70 124<7.33017 100.735> 91 84<247.796 708>
LayerCount: 2
Fore
SplineSet
175 708 m 1xa0
 175 425 l 2
 175 410 175 396 174 382 c 0
 173 368 173 353 172 339 c 0
 171 325 169 310 168 295 c 0
 167 280 165 264 163 247 c 1
 104 247 l 1
 102 264 100 280 99 295 c 0
 98 310 96 325 95 339 c 0
 94 353 93 368 92 382 c 0
 91 396 91 410 91 425 c 2
 91 708 l 1
 175 708 l 1xa0
70 54 m 0xc0
 70 63 72 71 75 79 c 0
 78 87 82 92 88 98 c 0
 94 104 100 109 107 112 c 0
 114 115 123 117 132 117 c 0
 141 117 149 115 156 112 c 0
 163 109 169 104 175 98 c 0xa0
 181 92 186 87 189 79 c 0
 192 71 194 63 194 54 c 0xc0
 194 45 192 37 189 30 c 0
 186 23 181 16 175 10 c 0xa0
 169 4 163 0 156 -3 c 0
 149 -6 141 -7 132 -7 c 0
 123 -7 114 -6 107 -3 c 0
 100 0 94 4 88 10 c 0
 82 16 78 23 75 30 c 0
 72 37 70 45 70 54 c 0xc0
EndSplineSet
EndChar

StartChar: question
Encoding: 13 63 2
Width: 442
VWidth: 988
Flags: W
HStem: -7 124<151.664 244.67> 644 72<126.004 280.688>
VStem: 136 124<6.33914 101.783> 170 61<247 306.111> 316 83<481.756 609.799>
LayerCount: 2
Fore
SplineSet
40 645 m 1xd8
 50 655 62 663 74 672 c 0
 86 681 99 688 114 695 c 0
 129 702 145 706 162 710 c 0
 179 714 197 716 217 716 c 0
 243 716 267 713 289 705 c 0
 311 697 331 686 347 672 c 0
 363 658 376 642 385 622 c 0
 394 602 399 580 399 555 c 0
 399 530 395 509 388 491 c 0
 381 473 370 457 359 443 c 0
 348 429 335 417 322 407 c 0
 309 397 297 388 285 379 c 0
 273 370 262 361 254 352 c 0
 246 343 241 334 240 323 c 2
 231 247 l 1
 170 247 l 1
 165 329 l 2
 164 344 166 357 173 368 c 0
 180 379 189 389 200 399 c 0
 211 409 223 419 237 428 c 0
 251 437 263 447 275 459 c 0
 287 471 296 483 304 498 c 0
 312 513 316 531 316 551 c 0
 316 565 314 577 308 589 c 0
 302 601 295 611 285 619 c 0
 275 627 264 633 251 637 c 0
 238 641 224 644 209 644 c 0
 189 644 172 641 158 636 c 0
 144 631 132 626 122 620 c 0
 112 614 104 609 98 604 c 0
 92 599 87 596 83 596 c 0
 75 596 68 600 63 608 c 2
 40 645 l 1xd8
136 54 m 0xe8
 136 63 138 71 141 79 c 0
 144 87 149 92 154 98 c 0
 159 104 165 109 173 112 c 0
 181 115 189 117 198 117 c 256
 207 117 214 115 222 112 c 0
 230 109 236 104 242 98 c 0
 248 92 252 87 255 79 c 0
 258 71 260 63 260 54 c 0
 260 45 258 37 255 30 c 0
 252 23 248 16 242 10 c 0
 236 4 230 0 222 -3 c 0
 214 -6 207 -7 198 -7 c 256
 189 -7 181 -6 173 -3 c 0
 165 0 159 4 154 10 c 0
 149 16 144 23 141 30 c 0
 138 37 136 45 136 54 c 0xe8
EndSplineSet
EndChar

StartChar: semicolon
Encoding: 10 59 3
Width: 258
VWidth: 988
Flags: W
HStem: 0 117<86.5171 133.97> 363 124<81.7397 175.783>
VStem: 67 124<378.33 471.67> 74 115<17.5186 99.4829>
LayerCount: 2
Fore
SplineSet
67 425 m 0xe0
 67 434 69 441 72 449 c 0
 75 457 80 463 85 469 c 0
 90 475 96 479 104 482 c 0
 112 485 119 487 128 487 c 256
 137 487 145 485 153 482 c 0
 161 479 166 475 172 469 c 0
 178 463 183 457 186 449 c 0
 189 441 191 434 191 425 c 0
 191 416 189 407 186 400 c 0
 183 393 178 387 172 381 c 0
 166 375 161 371 153 368 c 0
 145 365 137 363 128 363 c 256
 119 363 112 365 104 368 c 0
 96 371 90 375 85 381 c 0
 80 387 75 393 72 400 c 0
 69 407 67 416 67 425 c 0xe0
81 -120 m 2
 78 -118 77 -115 76 -113 c 0
 75 -111 74 -109 74 -106 c 0
 74 -104 75 -101 76 -99 c 0
 77 -97 80 -94 82 -92 c 0
 85 -88 89 -84 94 -78 c 0
 99 -72 105 -65 110 -57 c 0
 115 -49 120 -40 124 -30 c 0
 128 -20 132 -11 134 0 c 1
 133 0 132 0 131 0 c 0
 129 0 128 0 127 0 c 0
 110 0 97 6 86 17 c 0
 75 28 70 43 70 61 c 0
 70 76 75 89 86 100 c 0
 97 111 110 117 128 117 c 0
 138 117 147 115 155 111 c 0
 163 107 169 102 174 96 c 0
 179 90 182 82 185 74 c 0
 188 66 189 56 189 46 c 0xd0
 189 31 187 16 183 0 c 0
 179 -16 173 -31 165 -47 c 0
 157 -63 147 -78 135 -93 c 0
 123 -108 111 -121 96 -134 c 1
 81 -120 l 2
EndSplineSet
EndChar

StartChar: colon
Encoding: 9 58 4
Width: 247
VWidth: 988
Flags: W
HStem: -7 124<76.6639 169.67> 363 124<75.7397 170.661>
VStem: 62 123<6.33914 101.783 377.339 472.661>
LayerCount: 2
Fore
SplineSet
62 425 m 0
 62 434 63 441 66 449 c 0
 69 457 74 463 79 469 c 0
 84 475 91 479 99 482 c 0
 107 485 114 487 123 487 c 256
 132 487 139 485 147 482 c 0
 155 479 161 475 167 469 c 0
 173 463 177 457 180 449 c 0
 183 441 185 434 185 425 c 0
 185 416 183 407 180 400 c 0
 177 393 173 387 167 381 c 0
 161 375 155 371 147 368 c 0
 139 365 132 363 123 363 c 256
 114 363 107 365 99 368 c 0
 91 371 84 375 79 381 c 0
 74 387 69 393 66 400 c 0
 63 407 62 416 62 425 c 0
62 54 m 0
 62 63 63 71 66 79 c 0
 69 87 74 92 79 98 c 0
 84 104 91 109 99 112 c 0
 107 115 114 117 123 117 c 256
 132 117 139 115 147 112 c 0
 155 109 161 104 167 98 c 0
 173 92 177 87 180 79 c 0
 183 71 185 63 185 54 c 0
 185 45 183 37 180 30 c 0
 177 23 173 16 167 10 c 0
 161 4 155 0 147 -3 c 0
 139 -6 132 -7 123 -7 c 256
 114 -7 107 -6 99 -3 c 0
 91 0 84 4 79 10 c 0
 74 16 69 23 66 30 c 0
 63 37 62 45 62 54 c 0
EndSplineSet
EndChar

StartChar: guillemotleft
Encoding: 18 171 5
Width: 423
VWidth: 988
Flags: W
VStem: 49 312
LayerCount: 2
Fore
SplineSet
356 115 m 2
 361 107 362 100 361 93 c 0
 360 86 355 82 347 78 c 2
 319 64 l 1
 196 256 l 1
 196 267 l 1
 319 459 l 1
 347 446 l 2
 355 442 360 437 361 430 c 0
 362 423 361 417 356 409 c 2
 278 280 l 2
 273 272 269 266 264 262 c 1
 269 258 273 252 278 244 c 2
 356 115 l 2
210 115 m 2
 215 107 216 100 215 93 c 0
 214 86 209 82 201 78 c 2
 172 64 l 1
 49 256 l 1
 49 267 l 1
 172 459 l 1
 201 446 l 2
 209 442 214 437 215 430 c 0
 216 423 215 417 210 409 c 2
 132 280 l 2
 127 272 123 266 118 262 c 1
 123 258 127 252 132 244 c 2
 210 115 l 2
EndSplineSet
EndChar

StartChar: guillemotright
Encoding: 19 187 6
Width: 424
VWidth: 988
Flags: W
VStem: 63 312
LayerCount: 2
Fore
SplineSet
375 267 m 1
 375 256 l 1
 252 64 l 1
 223 78 l 2
 215 82 211 86 210 93 c 0
 209 100 209 107 214 115 c 2
 292 244 l 2
 295 248 298 251 300 254 c 0
 302 257 304 260 307 262 c 1
 304 264 302 266 300 269 c 0
 298 272 295 276 292 280 c 2
 214 409 l 2
 209 417 209 423 210 430 c 0
 211 437 215 442 223 446 c 2
 252 459 l 1
 375 267 l 1
229 267 m 1
 229 256 l 1
 106 64 l 1
 77 78 l 2
 69 82 64 86 63 93 c 0
 62 100 63 107 68 115 c 2
 146 244 l 2
 149 248 151 251 153 254 c 0
 155 257 158 260 161 262 c 1
 158 264 155 266 153 269 c 0
 151 272 149 276 146 280 c 2
 68 409 l 2
 63 417 62 423 63 430 c 0
 64 437 69 442 77 446 c 2
 106 459 l 1
 229 267 l 1
EndSplineSet
EndChar

StartChar: parenleft
Encoding: 7 40 7
Width: 263
VWidth: 988
Flags: W
VStem: 44 77<126.503 494.728>
LayerCount: 2
Fore
SplineSet
121 311 m 256
 121 241 130 172 148 105 c 0
 166 38 192 -24 227 -84 c 0
 232 -94 234 -103 231 -108 c 0
 228 -113 224 -118 219 -121 c 2
 180 -145 l 1
 155 -107 134 -69 117 -32 c 0
 100 5 86 42 75 80 c 0
 64 118 57 155 52 193 c 0
 47 231 44 271 44 311 c 0
 44 351 47 390 52 428 c 0
 57 466 64 504 75 541 c 0
 86 578 100 616 117 653 c 0
 134 690 155 728 180 766 c 1
 219 742 l 2
 224 739 228 734 231 729 c 0
 234 724 232 716 227 706 c 0
 192 646 166 583 148 516 c 0
 130 449 121 381 121 311 c 256
EndSplineSet
EndChar

StartChar: parenright
Encoding: 8 41 8
Width: 263
VWidth: 988
Flags: W
VStem: 143 76<126.503 494.728>
LayerCount: 2
Fore
SplineSet
143 311 m 256
 143 381 134 449 116 516 c 0
 98 583 72 646 37 706 c 0
 34 711 33 715 32 719 c 0
 31 723 32 726 33 729 c 0
 34 732 35 734 37 736 c 0
 39 738 41 740 44 742 c 2
 83 766 l 1
 108 728 129 690 146 653 c 0
 163 616 177 578 188 541 c 0
 199 504 207 466 212 428 c 0
 217 390 219 351 219 311 c 0
 219 271 217 231 212 193 c 0
 207 155 199 118 188 80 c 0
 177 42 163 5 146 -32 c 0
 129 -69 108 -107 83 -145 c 1
 44 -121 l 2
 41 -119 39 -117 37 -115 c 0
 35 -113 34 -111 33 -108 c 0
 32 -105 31 -102 32 -98 c 0
 33 -94 34 -89 37 -84 c 0
 72 -24 98 38 116 105 c 0
 134 172 143 241 143 311 c 256
EndSplineSet
EndChar

StartChar: bracketleft
Encoding: 14 91 9
Width: 302
VWidth: 988
Flags: W
HStem: -143 59<164 271.895> 700 57<164 264.811>
VStem: 90 182<-143 -84.0731 706.189 757> 90 74<-84 700>
LayerCount: 2
Fore
SplineSet
164 700 m 1xd0
 164 -84 l 1xd0
 248 -84 l 2
 255 -84 261 -86 265 -91 c 0
 269 -96 272 -101 272 -108 c 2
 272 -143 l 1
 90 -143 l 1
 90 757 l 1
 272 757 l 1
 272 723 l 2xe0
 272 716 269 710 265 706 c 0
 261 702 255 700 248 700 c 2
 164 700 l 1xd0
EndSplineSet
EndChar

StartChar: bracketright
Encoding: 15 93 10
Width: 302
VWidth: 988
Flags: W
HStem: -143 59<37.1897 138> 700 57<37.1897 138>
VStem: 31 181<-143 -91.2344 706.189 757> 138 74<-84 700>
LayerCount: 2
Fore
SplineSet
212 -143 m 1xe0
 31 -143 l 1
 31 -108 l 2xe0
 31 -101 33 -96 37 -91 c 0
 41 -86 48 -84 55 -84 c 2
 138 -84 l 1
 138 700 l 1xd0
 55 700 l 2
 48 700 41 702 37 706 c 0
 33 710 31 716 31 723 c 2
 31 757 l 1
 212 757 l 1
 212 -143 l 1xe0
EndSplineSet
EndChar

StartChar: braceleft
Encoding: 16 123 11
Width: 297
VWidth: 988
Flags: W
HStem: -143 59<177.599 265> 281 53<34 82.4353> 700 57<178.583 265>
VStem: 76 77<-59.3574 166.544 448.717 674.199> 101 75<57.801 260.388 352.411 556.357>
LayerCount: 2
Fore
SplineSet
235 700 m 2xf0
 209 700 189 692 175 675 c 0
 161 658 153 635 153 607 c 0xf0
 153 589 155 571 157 554 c 0
 159 537 162 520 165 504 c 0
 168 488 170 471 172 455 c 0
 174 439 176 422 176 406 c 0
 176 394 174 383 170 372 c 0
 166 361 162 352 155 343 c 0
 148 334 140 327 131 321 c 0
 122 315 112 310 101 307 c 1
 112 304 122 300 131 294 c 0
 140 288 148 281 155 272 c 0
 162 263 166 254 170 243 c 0
 174 232 176 221 176 209 c 0xe8
 176 193 174 176 172 160 c 0
 170 144 168 127 165 111 c 0
 162 95 159 78 157 61 c 0
 155 44 153 26 153 8 c 0
 153 -21 161 -44 175 -60 c 0
 189 -76 209 -84 235 -84 c 2
 245 -84 l 2
 249 -84 253 -86 258 -89 c 0
 263 -92 265 -96 265 -103 c 2
 265 -143 l 1
 238 -143 l 2
 211 -143 188 -139 168 -131 c 0
 148 -123 131 -113 117 -99 c 0
 103 -85 93 -68 86 -49 c 0
 79 -30 76 -10 76 13 c 0xf0
 76 30 77 47 80 63 c 0
 83 79 85 96 88 112 c 0
 91 128 94 145 97 161 c 0
 100 177 101 194 101 210 c 0
 101 231 95 248 83 261 c 0
 71 274 56 281 34 281 c 1
 34 334 l 1
 56 334 71 341 83 354 c 0
 95 367 101 384 101 405 c 0xe8
 101 421 100 438 97 454 c 0
 94 470 91 486 88 502 c 0
 85 518 83 535 80 551 c 0
 77 567 76 585 76 602 c 0
 76 625 79 646 86 665 c 0
 93 684 103 700 117 714 c 0
 131 728 148 738 168 746 c 0
 188 754 211 757 238 757 c 2
 265 757 l 1
 265 718 l 2
 265 711 263 707 258 704 c 0
 253 701 249 700 245 700 c 2
 235 700 l 2xf0
EndSplineSet
EndChar

StartChar: braceright
Encoding: 17 125 12
Width: 297
VWidth: 988
Flags: W
HStem: -143 59<33 120.336> 281 53<214.565 264> 700 57<33 120.293>
VStem: 122 75<50.5252 260.388 354.612 563.661> 144 77<-59.7835 173.808 441.192 674.788>
LayerCount: 2
Fore
SplineSet
264 281 m 1xf0
 242 281 226 274 214 261 c 0
 202 248 197 231 197 210 c 0xf0
 197 194 198 177 201 161 c 0
 204 145 206 128 209 112 c 0
 212 96 214 79 217 63 c 0
 220 47 221 30 221 13 c 0
 221 -10 218 -30 211 -49 c 0
 204 -68 195 -85 181 -99 c 0
 167 -113 150 -123 130 -131 c 0
 110 -139 86 -143 59 -143 c 2
 33 -143 l 1
 33 -103 l 2
 33 -96 35 -92 40 -89 c 0
 45 -86 48 -84 52 -84 c 2
 62 -84 l 2
 88 -84 109 -76 123 -60 c 0
 137 -44 144 -21 144 8 c 0xe8
 144 26 143 44 141 61 c 0
 139 78 136 95 133 111 c 0
 130 127 127 144 125 160 c 0
 123 176 122 193 122 209 c 0
 122 221 123 232 127 243 c 0
 131 254 136 263 143 272 c 0
 150 281 157 288 166 294 c 0
 175 300 185 304 196 307 c 1
 185 310 175 315 166 321 c 0
 157 327 150 334 143 343 c 0
 136 352 131 361 127 372 c 0
 123 383 122 394 122 406 c 0xf0
 122 422 123 439 125 455 c 0
 127 471 130 488 133 504 c 0
 136 520 139 537 141 554 c 0
 143 571 144 589 144 607 c 0
 144 635 137 658 123 675 c 0
 109 692 88 700 62 700 c 2
 52 700 l 2
 48 700 45 701 40 704 c 0
 35 707 33 711 33 718 c 2
 33 757 l 1
 59 757 l 2
 86 757 110 754 130 746 c 0
 150 738 167 728 181 714 c 0
 195 700 204 684 211 665 c 0
 218 646 221 625 221 602 c 0xe8
 221 585 220 567 217 551 c 0
 214 535 212 518 209 502 c 0
 206 486 204 470 201 454 c 0
 198 438 197 421 197 405 c 0
 197 384 202 367 214 354 c 0
 226 341 242 334 264 334 c 1
 264 281 l 1xf0
EndSplineSet
EndChar

StartChar: quotedbl
Encoding: 2 34 13
Width: 366
VWidth: 988
Flags: W
HStem: 455 253<80.2358 121.81 237.861 286.81>
VStem: 63 76<497.625 708> 227 77<497.625 708>
LayerCount: 2
Fore
SplineSet
304 708 m 1
 304 565 l 1
 296 488 l 2
 294 477 291 470 287 464 c 0
 283 458 275 455 265 455 c 0
 256 455 250 458 245 464 c 0
 240 470 237 477 235 488 c 2
 227 565 l 1
 227 708 l 1
 304 708 l 1
139 708 m 1
 139 565 l 1
 131 488 l 2
 129 477 126 470 122 464 c 0
 118 458 111 455 101 455 c 0
 92 455 85 458 80 464 c 0
 75 470 73 477 71 488 c 2
 63 565 l 1
 63 708 l 1
 139 708 l 1
EndSplineSet
EndChar

StartChar: ampersand
Encoding: 6 38 14
Width: 703
VWidth: 988
Flags: W
HStem: -8 72<193.058 373.896> 0 21G<605 695> 647 69<260.278 393.141>
VStem: 43 90<122.105 273.694> 139 83<467.847 608.973> 429 79<565 610.907> 541 74<253.011 358.812>
LayerCount: 2
Fore
SplineSet
239 349 m 1xbe
 204 331 178 308 160 282 c 0
 142 256 133 227 133 196 c 0
 133 175 137 155 145 139 c 0
 153 123 163 109 176 98 c 0
 189 87 204 78 220 72 c 0
 236 66 254 64 271 64 c 0
 308 64 341 70 370 84 c 0
 399 98 426 115 448 138 c 1
 239 349 l 1xbe
695 0 m 1x7e
 610 0 l 2x7e
 600 0 592 1 586 3 c 0
 580 5 574 11 567 18 c 2
 496 90 l 1
 465 60 429 37 389 19 c 0
 349 1 303 -8 255 -8 c 0xbe
 229 -8 203 -4 178 5 c 0
 153 14 130 27 110 44 c 0
 90 61 74 82 62 106 c 0
 50 130 43 158 43 189 c 0
 43 212 47 233 55 254 c 0
 63 275 73 294 87 311 c 0
 101 328 117 344 136 358 c 0
 155 372 176 384 198 394 c 1
 178 420 164 444 154 468 c 0
 144 492 139 516 139 542 c 0
 139 566 143 589 152 610 c 0
 161 631 174 649 190 665 c 0
 206 681 226 693 250 702 c 0
 274 711 301 716 330 716 c 0
 356 716 380 711 401 703 c 0
 422 695 441 684 456 670 c 0
 471 656 484 640 493 622 c 0
 502 604 507 585 508 565 c 1
 454 554 l 2
 443 551 434 556 429 569 c 0
 427 578 423 587 418 596 c 0
 413 605 406 613 398 621 c 0
 390 629 380 635 369 640 c 0
 358 645 345 647 330 647 c 0
 314 647 298 644 285 639 c 0
 272 634 260 626 251 617 c 0
 242 608 234 597 229 584 c 0
 224 571 222 558 222 543 c 0
 222 531 223 521 226 510 c 0
 229 499 232 489 238 478 c 0
 244 467 251 456 260 445 c 0
 269 434 279 422 292 409 c 2
 496 202 l 1
 509 224 518 248 526 272 c 0
 534 296 539 320 541 344 c 0
 542 350 544 355 547 359 c 0
 550 363 555 365 561 365 c 2
 615 365 l 1
 615 327 609 289 597 253 c 0
 585 217 569 183 547 151 c 1
 695 0 l 1x7e
EndSplineSet
EndChar

StartChar: dollar
Encoding: 4 36 15
Width: 573
VWidth: 988
Flags: W
HStem: -6 74<178.119 242 303 375.927> 639 75<213.623 287 347 405.135>
VStem: 79 83<467.547 591.953> 436 84<125.083 262.509>
LayerCount: 2
Fore
SplineSet
303 68 m 1
 325 70 344 75 360 82 c 0
 376 89 391 98 402 110 c 0
 413 122 422 135 428 150 c 0
 434 165 436 183 436 201 c 0
 436 217 433 232 427 244 c 0
 421 256 413 265 402 274 c 0
 391 283 379 291 365 297 c 0
 351 303 336 309 320 314 c 1
 303 68 l 1
287 639 m 1
 266 637 247 633 231 626 c 0
 215 619 202 611 192 601 c 0
 182 591 174 580 169 568 c 0
 164 556 162 543 162 529 c 0
 162 513 164 500 170 488 c 0
 176 476 184 466 194 457 c 0
 204 448 215 441 228 434 c 0
 241 427 256 421 271 416 c 1
 287 639 l 1
326 399 m 1
 350 391 373 384 396 375 c 0
 419 366 440 355 458 341 c 0
 476 327 492 311 503 291 c 0
 514 271 520 245 520 215 c 0
 520 185 515 157 505 131 c 0
 495 105 481 83 462 63 c 0
 443 43 420 27 392 15 c 0
 364 3 333 -5 298 -7 c 1
 292 -94 l 2
 292 -100 290 -105 285 -110 c 0
 280 -115 274 -118 267 -118 c 2
 235 -118 l 1
 242 -6 l 1
 202 -2 166 7 133 23 c 0
 100 39 72 59 48 84 c 1
 75 125 l 2
 78 129 81 132 85 134 c 0
 89 136 93 137 98 137 c 0
 104 137 111 134 119 128 c 0
 127 122 136 115 148 107 c 0
 160 99 174 91 190 83 c 0
 206 75 226 71 248 68 c 1
 265 331 l 1
 242 338 219 345 197 354 c 0
 175 363 156 374 138 388 c 0
 120 402 106 420 95 441 c 0
 84 462 79 488 79 520 c 0
 79 544 84 568 93 591 c 0
 102 614 116 634 134 652 c 0
 152 670 175 684 201 695 c 0
 227 706 258 713 292 714 c 1
 296 786 l 2
 296 792 300 797 304 802 c 0
 308 807 314 810 321 810 c 2
 354 810 l 1
 347 712 l 1
 381 708 412 700 437 686 c 0
 462 672 484 655 503 636 c 1
 482 604 l 2
 475 594 468 589 459 589 c 0
 454 589 449 591 442 595 c 0
 435 599 427 604 418 610 c 0
 409 616 398 621 385 626 c 0
 372 631 358 635 342 638 c 1
 326 399 l 1
EndSplineSet
EndChar

StartChar: numbersign
Encoding: 3 35 16
Width: 573
VWidth: 988
Flags: W
HStem: 0 21G<83 127 308 354.019> 209 65<33 125 207 319 401 509> 435 65<69.2835 166 248 361 443 528.717>
VStem: 284 66<0.354492 34.8333>
LayerCount: 2
Fore
SplineSet
361 435 m 1
 239 435 l 1
 207 274 l 1
 329 274 l 1
 361 435 l 1
547 500 m 1
 541 462 l 2
 539 452 535 445 529 441 c 0
 523 437 514 435 501 435 c 2
 433 435 l 1
 401 274 l 1
 490 274 l 2
 500 274 506 271 510 266 c 0
 514 261 515 251 513 237 c 2
 509 209 l 1
 392 209 l 1
 350 0 l 1
 310 0 l 2
 306 0 302 1 298 3 c 0
 294 5 291 8 289 11 c 0
 287 14 285 18 284 23 c 0
 283 28 283 32 284 38 c 2
 319 209 l 1
 197 209 l 1
 162 34 l 2
 160 22 156 13 148 8 c 0
 140 3 132 0 122 0 c 2
 83 0 l 1
 125 209 l 1
 52 209 l 2
 43 209 36 212 32 217 c 0
 28 222 27 232 29 246 c 2
 33 274 l 1
 134 274 l 1
 166 435 l 1
 51 435 l 1
 58 471 l 2
 60 481 63 488 69 493 c 0
 75 498 84 500 97 500 c 2
 175 500 l 1
 211 676 l 2
 213 686 218 694 225 700 c 0
 232 706 240 708 250 708 c 2
 290 708 l 1
 248 500 l 1
 370 500 l 1
 412 708 l 1
 451 708 l 2
 461 708 468 705 473 699 c 0
 478 693 481 685 479 675 c 2
 443 500 l 1
 547 500 l 1
EndSplineSet
EndChar

StartChar: less
Encoding: 11 60 17
Width: 573
VWidth: 988
Flags: W
LayerCount: 2
Fore
SplineSet
222 348 m 2
 215 345 208 342 201 339 c 0
 194 336 186 335 177 333 c 1
 186 331 194 328 201 326 c 0
 208 324 215 321 222 317 c 2
 444 205 l 2
 451 202 455 197 458 193 c 0
 461 189 462 184 462 179 c 2
 462 116 l 1
 80 314 l 1
 80 351 l 1
 462 549 l 1
 462 486 l 2
 462 480 461 476 458 472 c 0
 455 468 451 463 444 460 c 2
 222 348 l 2
EndSplineSet
EndChar

StartChar: greater
Encoding: 12 62 18
Width: 573
VWidth: 988
Flags: W
LayerCount: 2
Fore
SplineSet
493 351 m 1
 493 314 l 1
 111 116 l 1
 111 179 l 2
 111 184 112 189 115 193 c 0
 118 197 122 202 129 205 c 2
 351 317 l 2
 358 321 365 324 372 326 c 0
 379 328 387 331 395 333 c 1
 378 337 364 341 351 348 c 2
 129 460 l 2
 122 463 118 468 115 472 c 0
 112 476 111 480 111 486 c 2
 111 549 l 1
 493 351 l 1
EndSplineSet
EndChar

StartChar: percent
Encoding: 5 37 19
Width: 791
VWidth: 988
Flags: W
HStem: -8 58<533.158 650.141> 0 21G<90 158.5> 287 58<533.551 649.401> 361 58<143.201 257.604> 657 58<142.551 258.355>
VStem: 43 69<451.653 624.03> 289 68<451.653 624.03> 435 69<80.0546 255.356> 680 69<81.7384 254.115>
LayerCount: 2
Fore
SplineSet
357 537 m 0x3f80
 357 509 353 485 344 463 c 0
 335 441 324 422 310 407 c 0
 296 392 279 381 260 373 c 0
 241 365 221 361 200 361 c 0
 178 361 157 365 138 373 c 0
 119 381 102 392 88 407 c 0
 74 422 63 441 55 463 c 0
 47 485 43 509 43 537 c 0
 43 565 47 591 55 613 c 0
 63 635 74 653 88 668 c 0
 102 683 119 695 138 703 c 0
 157 711 178 715 200 715 c 0
 222 715 243 711 262 703 c 0
 281 695 298 683 312 668 c 0
 326 653 337 635 345 613 c 0
 353 591 357 565 357 537 c 0x3f80
289 537 m 0
 289 559 287 577 282 592 c 0
 277 607 271 620 263 630 c 0
 255 640 245 647 234 651 c 0
 223 655 212 657 200 657 c 256
 188 657 177 655 166 651 c 0
 155 647 146 640 138 630 c 0
 130 620 124 607 119 592 c 0
 114 577 112 559 112 537 c 0
 112 516 114 497 119 482 c 0
 124 467 130 455 138 446 c 0
 146 437 155 430 166 426 c 0
 177 422 188 419 200 419 c 256
 212 419 223 422 234 426 c 0
 245 430 255 437 263 446 c 0
 271 455 277 467 282 482 c 0
 287 497 289 516 289 537 c 0
607 693 m 2
 610 697 615 701 619 704 c 0
 623 707 629 708 637 708 c 2
 701 708 l 1
 183 14 l 2
 180 10 176 7 171 4 c 0
 166 1 162 0 155 0 c 2
 90 0 l 1x7f80
 607 693 l 2
749 167 m 0
 749 139 745 115 736 93 c 0
 727 71 715 53 701 38 c 0
 687 23 670 11 651 3 c 0
 632 -5 612 -8 591 -8 c 0xbf80
 569 -8 548 -5 529 3 c 0
 510 11 494 23 480 38 c 0
 466 53 455 71 447 93 c 0
 439 115 435 139 435 167 c 0
 435 195 439 221 447 243 c 0
 455 265 466 284 480 299 c 0
 494 314 510 325 529 333 c 0
 548 341 569 345 591 345 c 0
 613 345 634 341 653 333 c 0
 672 325 689 314 703 299 c 0
 717 284 728 265 736 243 c 0
 744 221 749 195 749 167 c 0
680 167 m 0
 680 189 678 208 673 223 c 0
 668 238 662 250 654 260 c 0
 646 270 637 277 626 281 c 0
 615 285 603 287 591 287 c 256
 579 287 568 285 557 281 c 0
 546 277 537 270 529 260 c 0
 521 250 515 238 511 223 c 0
 507 208 504 189 504 167 c 0
 504 146 507 128 511 113 c 0
 515 98 521 85 529 76 c 0
 537 67 546 60 557 56 c 0
 568 52 579 50 591 50 c 256
 603 50 615 52 626 56 c 0
 637 60 646 67 654 76 c 0
 662 85 668 98 673 113 c 0
 678 128 680 146 680 167 c 0
EndSplineSet
EndChar

StartChar: NameMe.66773
Encoding: 256 -1 20
Width: 551
VWidth: 988
Flags: W
HStem: 0 21G<70 126.5 398 487> 480 20G<422 487>
VStem: 70 88<144.421 728> 398 89<0 357.625>
LayerCount: 2
Fore
SplineSet
70 728 m 1
 158 728 l 1
 158 192 l 2
 157 169 l 0
 157 161 157 153 156 144 c 1
 400 484 l 2
 402 486 404 489 407 492 c 0
 409 494 412 496 414 497 c 0
 416 498 420 500 424 500 c 0
 428 500 433 500 437 500 c 2
 487 500 l 1
 487 0 l 1
 398 0 l 1
 398 312 l 2
 399 334 l 0
 399 342 399 350 400 358 c 1
 156 17 l 2
 154 14 149 10 141 4 c 0
 137 1 131 0 122 0 c 2
 70 0 l 1
 70 728 l 1
EndSplineSet
EndChar

StartChar: NameMe.66774
Encoding: 257 -1 21
Width: 551
VWidth: 988
Flags: W
HStem: 0 21G<70 126.5> 480 20G<70 158 422 487>
VStem: 70 88<144.421 500> 398 89<-169 357.625>
LayerCount: 2
Fore
SplineSet
70 500 m 1
 158 500 l 1
 158 192 l 2
 158 185 157 177 157 169 c 0
 157 161 157 153 156 144 c 1
 400 484 l 2
 402 486 404 489 407 492 c 0
 409 494 412 496 414 497 c 0
 416 498 420 500 424 500 c 0
 428 500 433 500 437 500 c 2
 487 500 l 1
 487 -169 l 1
 398 -169 l 1
 398 312 l 2
 398 319 399 326 399 334 c 0
 399 342 399 350 400 358 c 1
 156 17 l 2
 154 14 149 10 141 4 c 0
 137 1 131 0 122 0 c 2
 70 0 l 1
 70 500 l 1
EndSplineSet
EndChar

StartChar: NameMe.66777
Encoding: 258 -1 22
Width: 415
VWidth: 988
Flags: W
HStem: 0 21G<101 125.5 298.5 357> 480 20G<269 357>
VStem: 70 88<64 728> 269 88<109.359 500> 281 76<0.0703125 72>
LayerCount: 2
Fore
SplineSet
158 64 m 1xe8
 175 67 192 73 207 81 c 0
 230 93 250 110 269 132 c 1
 269 500 l 1
 357 500 l 1xf0
 357 0 l 1
 305 0 l 2
 292 0 284 6 281 18 c 1
 274 72 l 1
 252 48 228 29 201 16 c 0
 174 3 143 -3 108 -3 c 0
 94 -3 82 -2 70 -0 c 1
 70 32 70 32 70 728 c 1
 158 728 l 1
 158 64 l 1xe8
EndSplineSet
EndChar

StartChar: NameMe.66775
Encoding: 259 -1 23
Width: 415
VWidth: 988
Flags: W
HStem: 0 21G<70 150.5> 480 20G<272 357>
VStem: 70 88<76 728> 272 85<126.563 500>
LayerCount: 2
Fore
SplineSet
158 76 m 17
 234 89 272 132 272 204 c 10
 272 500 l 1
 357 500 l 1
 357 202 l 2
 357 141 335 92 292 56 c 0
 248 19 188 0 113 0 c 2
 70 0 l 1
 70 728 l 1
 158 728 l 1
 158 76 l 17
EndSplineSet
EndChar

StartChar: NameMe.66778
Encoding: 260 -1 24
Width: 415
VWidth: 988
Flags: W
HStem: 0 21G<70 158> 480 20G<70 128.5 301.5 326>
VStem: 70 88<0 391.641> 70 76<428 499.93> 269 88<-169 436>
LayerCount: 2
Fore
SplineSet
269 436 m 1xd8
 252 433 235 428 220 420 c 0
 197 408 177 391 158 369 c 1
 158 0 l 1
 70 0 l 1xe8
 70 500 l 1
 122 500 l 2
 135 500 143 494 146 482 c 1
 153 428 l 1
 175 452 199 471 226 484 c 0
 253 497 284 504 319 504 c 0
 333 504 345 503 357 501 c 1
 357 498 357 498 357 -169 c 1
 269 -169 l 1
 269 436 l 1xd8
EndSplineSet
EndChar

StartChar: NameMe.66776
Encoding: 261 -1 25
Width: 415
VWidth: 988
Flags: W
HStem: 0 21G<70 155> 480 20G<276.5 357>
VStem: 70 85<0 372.088> 269 88<-169 424>
LayerCount: 2
Fore
SplineSet
269 424 m 17
 193 411 155 368 155 296 c 10
 155 0 l 1
 70 0 l 1
 70 299 l 2
 70 360 92 409 135 445 c 0
 179 482 239 500 314 500 c 2
 357 500 l 1
 357 -169 l 1
 269 -169 l 1
 269 424 l 17
EndSplineSet
EndChar

StartChar: NameMe.66779
Encoding: 262 -1 26
Width: 550
VWidth: 988
Flags: W
HStem: 0 78<158 275.633> 480 20G<70 158 398 487>
VStem: 70 88<78 500> 398 89<178.004 500> 409 78<0.287109 140>
LayerCount: 2
Fore
SplineSet
403 140 m 1xe8
 356 47 272 0 150 0 c 0
 110 0 110 0 70 0 c 1
 70 77 l 2
 70 466 l 0
 70 500 l 1
 158 500 l 0
 158 78 l 0
 162 78 l 2
 267 78 338 111 377 178 c 0
 385 191 392 207 398 224 c 1
 398 500 l 1
 487 500 l 1xf0
 487 0 l 1
 436 0 l 2
 419 0 410 8 409 24 c 2
 403 140 l 1xe8
EndSplineSet
EndChar

StartChar: NameMe.66780
Encoding: 263 -1 27
Width: 550
VWidth: 988
Flags: W
HStem: 0 77<158 218.839> 480 20G<70 158 403.5 487>
VStem: 70 88<77 500> 398 89<0 359>
LayerCount: 2
Fore
SplineSet
487 500 m 1
 487 0 l 1
 443 0 442 0 398 0 c 1
 398 282 l 2
 398 316 399 338 400 347 c 0
 401 351 402 355 402 359 c 257
 369 120 281 0 139 0 c 2
 70 0 l 1
 70 500 l 1
 158 500 l 1
 158 77 l 1
 258 77 334 213 384 483 c 0
 386 495 395 500 412 500 c 2
 487 500 l 1
EndSplineSet
EndChar

StartChar: NameMe.66781
Encoding: 264 -1 28
Width: 359
VWidth: 988
Flags: W
HStem: 0 21G<70 158> 423 86<222.581 345.904>
VStem: 70 88<0 362.216 401 728>
LayerCount: 2
Fore
SplineSet
158 728 m 5
 158 460 l 4
 158 401 l 5
 173 435 191 461 213 480 c 4
 235 499 262 509 295 509 c 4
 306 509 316 508 326 506 c 4
 336 504 344 501 352 496 c 5
 346 430 l 5
 344 421 339 417 331 417 c 4
 326 417 319 418 310 420 c 4
 301 422 292 423 281 423 c 4
 265 423 250 421 238 416 c 4
 226 411 215 404 205 395 c 4
 195 386 187 374 179 361 c 4
 171 348 165 332 158 315 c 5
 158 0 l 5
 100 0 l 4
 70 0 l 5
 70 728 l 5
 158 728 l 5
EndSplineSet
EndChar

StartChar: NameMe.66782
Encoding: 265 -1 29
Width: 359
VWidth: 988
Flags: W
HStem: -7 87<26.0967 149.419> 480 20G<214 302>
VStem: 214 88<-169 101 139.784 500>
LayerCount: 2
Fore
SplineSet
214 -169 m 1
 214 42 l 0
 214 101 l 1
 199 67 181 41 159 22 c 0
 137 3 110 -7 77 -7 c 0
 66 -7 56 -5 46 -3 c 0
 36 -1 28 2 20 7 c 1
 26 73 l 1
 28 82 34 85 42 85 c 0
 47 85 53 85 62 83 c 0
 71 81 80 80 91 80 c 0
 107 80 122 82 134 87 c 0
 146 92 157 98 167 107 c 0
 177 116 185 128 193 141 c 0
 201 154 207 170 214 187 c 1
 214 500 l 1
 272 500 l 0
 302 500 l 1
 302 -169 l 1
 214 -169 l 1
EndSplineSet
EndChar

StartChar: NameMe.66783
Encoding: 266 -1 30
Width: 471
VWidth: 988
Flags: W
HStem: -174 68<223.104 376.686> 440 68<226.167 378.785>
VStem: 56 90<-1.39722 336.01>
LayerCount: 2
Fore
SplineSet
432 412 m 2
 429 408 427 405 424 403 c 0
 421 401 419 400 414 400 c 0
 409 400 403 402 397 406 c 0
 391 410 384 415 376 420 c 0
 368 425 357 430 345 434 c 0
 333 438 319 440 302 440 c 0
 276 440 253 435 234 424 c 0
 215 413 198 397 185 375 c 0
 172 353 162 324 156 290 c 0
 150 256 146 214 146 167 c 0
 146 117 150 75 157 40 c 0
 164 5 174 -23 187 -45 c 0
 200 -67 217 -82 236 -92 c 0
 255 -102 277 -106 302 -106 c 0
 321 -106 336 -104 349 -99 c 0
 362 -94 371 -88 380 -82 c 0
 389 -76 396 -69 402 -64 c 0
 408 -59 414 -57 420 -57 c 0
 424 -57 427 -58 430 -59 c 0
 433 -60 435 -62 437 -65 c 2
 461 -97 l 1
 450 -111 439 -122 425 -132 c 0
 411 -142 396 -150 381 -156 c 0
 366 -162 350 -167 334 -170 c 0
 318 -173 302 -174 287 -174 c 0
 253 -174 221 -168 193 -156 c 0
 165 -144 141 -124 121 -97 c 0
 101 -70 84 -35 73 7 c 0
 62 49 56 101 56 162 c 0
 56 276 76 361 117 420 c 0
 158 479 217 508 294 508 c 0
 328 508 358 502 385 491 c 0
 412 480 435 464 456 443 c 1
 432 412 l 2
EndSplineSet
EndChar

StartChar: NameMe.66784
Encoding: 267 -1 31
Width: 446
VWidth: 988
Flags: W
HStem: -179 67<166.628 313.656> 432 68<29 293>
VStem: 30 75<-50.9284 116.254>
LayerCount: 2
Fore
SplineSet
293 432 m 1
 29 432 l 1
 29 500 l 1
 406 500 l 1
 406 464 l 2
 406 460 405 455 403 449 c 0
 401 442 398 436 394 432 c 2
 166 173 l 2
 125 126 105 80 105 35 c 3
 105 -14 119 -50 146 -75 c 0
 174 -100 205 -112 241 -112 c 3
 277 -112 313 -96 351 -64 c 1
 366 -52 379 -54 390 -69 c 2
 411 -97 l 1
 362 -152 303 -179 234 -179 c 0
 177 -179 130 -161 91 -126 c 0
 50 -89 30 -41 30 19 c 3
 30 91 56 157 107 217 c 2
 293 432 l 1
EndSplineSet
EndChar

StartChar: py
Encoding: 20 60800 32
Width: 510
VWidth: 988
GlyphClass: 2
Flags: W
HStem: 0 46<220 316.982> 309 199<295.87 396.975> 480 20G<50 220>
VStem: 50 170<46 500> 418 42<184.42 353>
AnchorPoint: "Top" 255 656.658 basechar 0
AnchorPoint: "Bottom" 206 0 basechar 0
LayerCount: 2
Fore
SplineSet
211 0 m 4xd8
 171 0 90 0 50 0 c 5
 50 77 l 6
 50 500 l 5
 220 500 l 5xb8
 220 46 l 5
 224 46 l 6
 344 46 418 118 418 353 c 5
 401.845703125 328.7734375 374.009765625 309 352 309 c 7
 309 309 260 347.012695312 260 402 c 7
 260 479.05859375 308 508 360 508 c 7
 415.973632812 508 460 442.680296931 460 389 c 7
 460 43.9637700183 344 0 211 0 c 4xd8
EndSplineSet
EndChar

StartChar: ty
Encoding: 21 60801 33
Width: 510
VWidth: 988
GlyphClass: 2
Flags: W
HStem: 0 21G<49.9946 220 290 460> 438 70<240 382> 480 20G<49.8697 220>
VStem: 50 170<0 369 434 499> 290 170<0 435.67>
AnchorPoint: "Top" 255 657.658 basechar 0
AnchorPoint: "Bottom" 257 0 basechar 0
LayerCount: 2
Fore
SplineSet
220 434 m 1xb8
 220 434 245 508 323 508 c 0
 441 508 460 431.732421875 460 319 c 2
 460 0 l 1
 290 0 l 1
 290 319 l 2
 290 392.572265625 290 438 258 438 c 0xd8
 222 438 220 369 220 369 c 1
 220 0 l 1
 50 0 l 5
 49.8642578125 500 l 1
 220 499 l 1
 220 434 l 1xb8
EndSplineSet
EndChar

StartChar: ky
Encoding: 22 60802 34
Width: 510
VWidth: 988
GlyphClass: 2
Flags: W
HStem: 0 21G<50 160.5 290 460> 480 20G<50 220 354.699 460>
VStem: 50 170<208 500> 290 170<0 287.974>
AnchorPoint: "Top" 254 657.658 basechar 0
AnchorPoint: "Bottom" 248 0 basechar 0
LayerCount: 2
Fore
SplineSet
220 98 m 2
 200.747461824 43 186 0 135 -0 c 2
 135 -0 67 0 50 0 c 1
 50 500 l 1
 220 500 l 1
 220 208 l 2
 290 398 l 2
 311.984105589 460.811730254 334.398860559 500 375 500 c 2
 375 500 424 500 460 500 c 1
 460 0 l 1
 290 0 l 1
 290 287.973632812 l 6
 220 98 l 2
EndSplineSet
EndChar

StartChar: fy
Encoding: 23 60803 35
Width: 400
VWidth: 988
GlyphClass: 2
Flags: W
HStem: 0 36<124 237> 480 20G<120 290>
VStem: 120 170<303.6 500> 212 167<38.5456 143.938>
AnchorPoint: "Top" 206 658 basechar 0
AnchorPoint: "Bottom" 208 0 basechar 0
LayerCount: 2
Fore
SplineSet
124 36 m 1xe0
 237 36 l 1
 234.787057634 36.0000003584 212 56 212 94 c 3
 212 141 253.988637831 169 298 169 c 3
 346.010415537 169 379 135 379 82 c 3xd0
 379 26.8544921875 343 0 290 0 c 3
 181 0 20 0 20 0 c 5
 20 0 118.029864696 168 120 428 c 1
 120 500 l 0
 290 500 l 1
 290 460 l 2
 290 284 197 95.2463768116 124 36 c 1xe0
EndSplineSet
EndChar

StartChar: ly
Encoding: 24 60804 36
Width: 510
VWidth: 988
GlyphClass: 2
Flags: W
HStem: -7 37<245.764 351.523> 474 34<246.715 351.91>
VStem: 37.6641 170.336<105.815 399.003> 298 171<87.0643 204.952 303.048 423.589>
AnchorPoint: "Top" 255 658 basechar 0
AnchorPoint: "Bottom" 255 0 basechar 0
LayerCount: 2
Fore
SplineSet
255 -7 m 3
 107 -7 37.6640625 61.9921875 37.6640625 250 c 3
 37.6640625 440.018554688 100.962890625 508 255 508 c 3
 358 508 469 486.015624046 469 358 c 3
 469 296.981445312 423.951171875 276 381 276 c 3
 351 276 298 299.004882812 298 358 c 7
 298 406.09375 311.05859375 426.451171875 359 452 c 1
 345 469 305.359375 474 286 474 c 3
 208.9765625 474 208 357.970703125 208 250 c 0
 208 144.887695312 208.9765625 30 286 30 c 3
 305.104492188 30 347 38 359 56 c 1
 311.05859375 81.548828125 298 101.90625 298 150 c 7
 298 208.995117188 351 232 381 232 c 3
 423.951171875 232 469 211.018554688 469 150 c 3
 469 19.5340797264 351.000035887 -7 255 -7 c 3
EndSplineSet
EndChar

StartChar: sy
Encoding: 25 60805 37
Width: 510
VWidth: 988
GlyphClass: 2
Flags: W
HStem: -6.91699 49.917<137.227 253.478> 315 192.974<106.005 222.99> 480 20G<290 460>
VStem: 37.6641 39.6846<126.664 368.934> 290 170<110.833 500>
AnchorPoint: "Top" 254 657.658 basechar 0
AnchorPoint: "Bottom" 256 0 basechar 0
LayerCount: 2
Fore
SplineSet
253 412 m 3xd8
 253 369.988096925 234.06161783 315 161 315 c 3xd8
 110.990001 315 98 340 85 370 c 1
 79 342 77.3486328125 301.211914062 77.3486328125 287 c 3
 77.3486328125 98.9326171875 124.993179649 43 201 43 c 3
 261 43 290 104 290 171 c 2
 290 370 l 1
 290 445 l 1
 290 500 l 1
 460 500 l 1xb8
 460 295 l 2
 460 52 400 -6.9169921875 230 -6.9169921875 c 3
 105 -6.9169921875 37.6640625 57 37.6640625 295 c 7
 37.6640625 391.9765625 66.9990234375 507.973632812 163 507.973632812 c 7
 227 507.973632812 253 460.007860352 253 412 c 3xd8
EndSplineSet
EndChar

StartChar: cy
Encoding: 26 60806 38
Width: 510
VWidth: 988
GlyphClass: 2
Flags: WO
HStem: 0 21G<50 220 290 460> 392.945 55.849<225.184 286.298> 479.974 20G<50 220 290 460>
VStem: 50 170<0 390.082 405 499.974> 220 70<344.974 368 405 448.794> 290 170<0 390.623 405 500>
AnchorPoint: "Bottom" 257 0 basechar 0
AnchorPoint: "Top" 255 657.658 basechar 0
LayerCount: 2
Fore
SplineSet
290 345 m 3xe8
 290 379.436846821 277.000066414 392.944727435 254.000000503 392.944727435 c 27
 230.999933586 392.944727435 220 368 220 344.973632812 c 27
 220 210 220 0 220 0 c 1
 50 0 l 1
 50 499.973632812 l 1
 220 499.973632812 l 0
 220 405 l 3xf0
 220 440.156034396 232.999033447 448.793773724 254.999998928 448.793773724 c 3
 277 448.793773724 290 442.60558051 290 405 c 11xe8
 290 442 290 500 290 500 c 1
 460 500 l 1
 460 0 l 1
 460 0 342 0 290 0 c 27xe4
 290 345 l 3xe8
EndSplineSet
EndChar

StartChar: my
Encoding: 27 60807 39
Width: 510
VWidth: 988
GlyphClass: 2
Flags: W
HStem: 0 178<323.887 438.743> 0 36<220 309> 460 48.3994<129.574 314>
VStem: 50 56<405 438.297> 290 170<272.481 416.494> 292 178<36.4657 146.571>
AnchorPoint: "Top" 256 657.316 basechar 0
AnchorPoint: "Bottom" 255 0 basechar 0
LayerCount: 2
Back
SplineSet
292 89 m 4
 292 138 332 178 381 178 c 4
 430 178 470 138 470 89 c 4
 470 40 430 0 381 0 c 4
 332 0 292 40 292 89 c 4
65 334 m 0
 65 383 105 423 154 423 c 0
 203 423 243 383 243 334 c 0
 243 285 203 245 154 245 c 0
 105 245 65 285 65 334 c 0
EndSplineSet
Fore
SplineSet
292 84 m 3x74
 292 138.545898438 330.640533817 178 381 178 c 3
 439.650419543 178 469.437478144 130.712889637 470 82 c 3
 470 44.9228515625 434.021929649 0 387 0 c 0xb4
 49.78125 0 l 1
 49.791015625 46 l 2
 49.791015625 223.048828125 290 189.268029867 290 329 c 0
 290 403.005859375 256 460 193 460 c 3
 151 460 106 443.629882812 106 405 c 1
 187 456.532226562 250 402.01171875 250 330 c 3
 250 264 186.094726562 244 149 244 c 3
 83 244 50 307.658203125 50 353 c 3
 50 465 127 508.399414062 255 508.399414062 c 3
 373 508.399414062 460 458 460 338 c 3x78
 460 185 220.004882812 232 220 36 c 1
 309 36 l 1
 309 36 292 59.9168108424 292 84 c 3x74
EndSplineSet
EndChar

StartChar: xy
Encoding: 28 60808 40
Width: 510
VWidth: 988
GlyphClass: 2
Flags: W
HStem: -7 38<233.238 274.785> 470 38<232.308 275.891>
VStem: 37.6641 170.336<105.949 400.105> 301.677 170.323<126.188 378.665>
AnchorPoint: "Bottom" 255 0 basechar 0
AnchorPoint: "Top" 255 658 basechar 0
LayerCount: 2
Fore
SplineSet
301.676757812 250 m 3
 301.676757812 388.008106038 286.345703125 470 255 470 c 3
 220 470 208 387.970703125 208 250 c 0
 208 114.887695312 220 31 255 31 c 3
 284.418945312 31 301.676757812 113.947918744 301.676757812 250 c 3
472 250 m 3
 472 94.6545044792 391.282226562 -7 255 -7 c 3
 107 -7 37.6640625 61.9921875 37.6640625 250 c 3
 37.6640625 440.018554688 100.962890625 508 255 508 c 3
 393.80859375 508 472 414.333165462 472 250 c 3
472 250 m 1027
301.676757812 250 m 1027
EndSplineSet
EndChar

StartChar: denpabu
Encoding: 29 60809 41
Width: 270
VWidth: 988
GlyphClass: 2
Flags: W
HStem: 174 178<76.6456 193.009>
VStem: 45.8271 178<204.818 321.182>
AnchorPoint: "Top" 135 657 basechar 0
AnchorPoint: "Bottom" 135 0 basechar 0
LayerCount: 2
Fore
SplineSet
45.8271484375 263 m 4
 45.8271484375 312 85.8271484375 352 134.827148438 352 c 4
 183.827148438 352 223.827148438 312 223.827148438 263 c 4
 223.827148438 214 183.827148438 174 134.827148438 174 c 4
 85.8271484375 174 45.8271484375 214 45.8271484375 263 c 4
EndSplineSet
Substitution2: "Single Substitution lookup 73 subtable" denpabu.cas
EndChar

StartChar: yhy
Encoding: 30 60810 42
Width: 270
VWidth: 988
GlyphClass: 2
Flags: W
HStem: -0 21G<49.8652 220> 480 20G<49.8652 220>
VStem: 49.8652 170.135<0 500>
AnchorPoint: "Top" 136 657.658 basechar 0
AnchorPoint: "Bottom" 135 0 basechar 0
LayerCount: 2
Fore
SplineSet
220 500 m 1
 220 0 l 1
 49.865234375 -0 l 1
 49.865234375 500 l 1
 220 500 l 1
EndSplineSet
Substitution2: "Single Substitution lookup 75 subtable" yhy.cas
Substitution2: "Single Substitution lookup 74 subtable" yhy.cas
EndChar

StartChar: patonga
Encoding: 32 60812 44
Width: 0
VWidth: 988
GlyphClass: 4
Flags: W
HStem: -204 141
VStem: -359 198
AnchorPoint: "Bottom" -260 0 mark 0
LayerCount: 2
Fore
SplineSet
-161 -63 m 5
 -276 -190 l 6
 -281 -195 -286 -199 -290 -201 c 4
 -294 -203 -300 -204 -307 -204 c 6
 -359 -204 l 5
 -286 -84 l 6
 -281 -76 -276 -71 -271 -68 c 4
 -266 -65 -258 -63 -247 -63 c 6
 -161 -63 l 5
EndSplineSet
EndChar

StartChar: retonga
Encoding: 33 60813 45
Width: 0
VWidth: 988
GlyphClass: 4
Flags: W
HStem: -204 141
VStem: -348 196
AnchorPoint: "Bottom" -250 0 mark 0
LayerCount: 2
Fore
SplineSet
-265 -63 m 6
 -254 -63 -245 -65 -240 -68 c 4
 -235 -71 -231 -76 -226 -84 c 6
 -152 -204 l 5
 -202 -204 l 6
 -209 -204 -215 -203 -219 -201 c 4
 -223 -199 -227 -195 -232 -190 c 6
 -348 -63 l 5
 -265 -63 l 6
EndSplineSet
EndChar

StartChar: citonga
Encoding: 34 60814 46
Width: 0
VWidth: 988
GlyphClass: 4
Flags: W
HStem: -199 130
VStem: -420 302
AnchorPoint: "Bottom" -269 0 mark 0
LayerCount: 2
Fore
SplineSet
-118 -199 m 5
 -177 -199 l 6
 -181 -199 -183 -199 -187 -197 c 4
 -191 -195 -194 -194 -196 -192 c 6
 -260 -125 l 6
 -262 -123 -263 -122 -264 -120 c 4
 -265 -118 -266 -117 -268 -115 c 5
 -270 -117 -271 -118 -272 -120 c 4
 -273 -122 -274 -123 -276 -125 c 6
 -340 -192 l 6
 -342 -194 -344 -195 -348 -197 c 4
 -352 -199 -355 -199 -359 -199 c 6
 -420 -199 l 5
 -310 -69 l 5
 -228 -69 l 5
 -118 -199 l 5
EndSplineSet
EndChar

StartChar: votonga
Encoding: 35 60815 47
Width: 0
VWidth: 988
GlyphClass: 4
Flags: W
HStem: -194 130
VStem: -421 302
AnchorPoint: "Bottom" -270 0 mark 0
LayerCount: 2
Fore
SplineSet
-119 -64 m 1
 -229 -194 l 1
 -311 -194 l 1
 -421 -64 l 1
 -360 -64 l 2
 -356 -64 -353 -64 -349 -66 c 0
 -345 -68 -343 -69 -341 -71 c 2
 -277 -138 l 2
 -275 -140 -274 -141 -273 -143 c 0
 -272 -145 -271 -146 -269 -148 c 1
 -267 -146 -266 -145 -265 -143 c 0
 -264 -141 -263 -140 -261 -138 c 2
 -197 -71 l 2
 -195 -69 -192 -68 -188 -66 c 0
 -184 -64 -182 -64 -178 -64 c 2
 -119 -64 l 1
EndSplineSet
EndChar

StartChar: by
Encoding: 36 60816 48
Width: 510
VWidth: 988
GlyphClass: 2
Flags: W
HStem: -7 199<110.761 214.13> 454 46<191.657 290>
VStem: 50 40<148 308.159> 290 170<-169.467 454>
AnchorPoint: "Bottom" 157 0 basechar 0
AnchorPoint: "Top" 281 656.658 basechar 0
LayerCount: 2
Fore
SplineSet
299 500 m 0
 339 500 420 500 460 500 c 1
 460 424 l 2
 460 -169.466796875 l 1
 290 -209.466796875 l 1
 290 454 l 1
 286 454 l 2
 166 454 90.328125 389 90 148 c 1
 106.154296875 172.2265625 135.990234375 192 158 192 c 3
 201 192 250 153.987304688 250 99 c 3
 250 21.94140625 202 -7 150 -7 c 3
 94.0263671875 -7 50 58.3193359375 50 112 c 3
 50 457.036132812 170 500 299 500 c 0
EndSplineSet
EndChar

StartChar: dy
Encoding: 37 60817 49
Width: 510
VWidth: 988
GlyphClass: 2
Flags: W
HStem: -6.91699 70<128 270> 480 20G<50 220 290 460>
VStem: 50 170<65.4134 500> 290 170<-169 67.083 132.083 500>
AnchorPoint: "Bottom" 144 0 basechar 0
AnchorPoint: "Top" 255 657.658 basechar 0
LayerCount: 2
Fore
SplineSet
290 67.0830078125 m 1
 290 67.0830078125 265 -6.9169921875 187 -6.9169921875 c 0
 69 -6.9169921875 50 69.3505859375 50 182.083007812 c 2
 50 500 l 1
 220 500 l 1
 220 182.083007812 l 2
 220 108.510742188 220 63.0830078125 252 63.0830078125 c 0
 288 63.0830078125 290 132.083007812 290 132.083007812 c 1
 290 500 l 1
 460 500 l 1
 460 -169 l 1
 290 -209 l 1
 290 67.0830078125 l 1
EndSplineSet
EndChar

StartChar: gy
Encoding: 38 60818 50
Width: 510
VWidth: 988
GlyphClass: 2
Flags: W
HStem: 0 21G<50 160.5> 480 20G<50 220 354.699 460>
VStem: 50 170<208 500> 290 170<-169.467 287.974>
AnchorPoint: "Bottom" 134 0 basechar 0
AnchorPoint: "Top" 254 657.658 basechar 0
LayerCount: 2
Fore
SplineSet
220 98 m 2
 200.747461824 43 186 0 135 -0 c 2
 135 -0 67 0 50 0 c 1
 50 500 l 1
 220 500 l 1
 220 208 l 2
 290 398 l 2
 311.984105589 460.811730254 334.398860559 500 375 500 c 2
 375 500 424 500 460 500 c 1
 460 -169.466796875 l 1
 290 -209.466796875 l 1
 290 287.973632812 l 6
 220 98 l 2
EndSplineSet
EndChar

StartChar: zy
Encoding: 41 60821 53
Width: 510
VWidth: 988
GlyphClass: 2
Flags: W
HStem: -6.91699 192.974<285.723 403.804> 449.057 58.9434<174.992 354.901>
VStem: 50 170<-170 407.8> 434.664 37.3359<128.626 329.755>
AnchorPoint: "Bottom" 351.117 0 basechar 0
AnchorPoint: "Top" 255.117 656.658 basechar 0
LayerCount: 2
Fore
SplineSet
256.6640625 89.056640625 m 3
 256.6640625 131.068359375 275.602539062 186.056640625 348.6640625 186.056640625 c 3
 398.673828125 186.056640625 416 154 423.6640625 126.056640625 c 1
 423.6640625 126.056640625 434.6640625 141.056640625 434.6640625 193.056640625 c 3
 434.6640625 343 378.6640625 449.056640625 309.6640625 449.056640625 c 3
 249.6640625 449.056640625 220.221253117 397.999538178 220 292 c 0
 220 -210 l 1
 50 -170 l 1
 49.8310546875 295 l 3
 49.8310546875 412.001020866 95 508 257 508 c 3
 408.052970841 508 472 397.063476562 472 213.056640625 c 3
 472 75.9963519218 430.665039062 -6.9169921875 344.6640625 -6.9169921875 c 3
 280.6640625 -6.9169921875 256.6640625 41.048828125 256.6640625 89.056640625 c 3
EndSplineSet
EndChar

StartChar: jy
Encoding: 42 60822 54
Width: 510
VWidth: 988
GlyphClass: 2
Flags: W
HStem: -0.0263672 21G<289.78 460> 43.9736 70.4258<230.63 282.774> 480 20G<49.7793 219.779 289.779 459.998>
VStem: 49.7793 170.002<-170 67 119.053 500> 289.781 170.219<0 91 150 500>
AnchorPoint: "Bottom" 376 0 basechar 0
AnchorPoint: "Top" 254 657.316 basechar 0
LayerCount: 2
Fore
SplineSet
289.78125 91 m 1
 289.78125 91 289.78125 43.9736328125 252.78125 43.9736328125 c 0
 222.298828125 43.9736328125 219.78125 67 219.78125 67 c 1
 220 -210 l 1
 50 -170 l 1
 49.779296875 500 l 1
 54.779296875 500 l 1
 219.779296875 500 l 1
 219.78125 200 l 1
 219.66796875 201 221.78125 114.399414062 251.78125 114.399414062 c 0
 276.78125 114.399414062 289.78125 150 289.78125 150 c 1
 289.779296875 500 l 1
 459.998046875 500 l 1
 460 0 l 5
 289.779296875 -0.0263671875 l 1
 289.78125 91 l 1
EndSplineSet
EndChar

StartChar: bahebu
Encoding: 44 60824 56
Width: 0
VWidth: 0
GlyphClass: 4
Flags: W
HStem: -194 124<-309.03 -214.583>
VStem: -323 123<-179.661 -84.3391>
AnchorPoint: "Bottom" -262 0 mark 0
LayerCount: 2
Fore
SplineSet
-323 -132 m 4
 -323 -123 -322 -116 -319 -108 c 4
 -316 -100 -311 -94 -306 -88 c 4
 -301 -82 -294 -78 -286 -75 c 4
 -278 -72 -271 -70 -262 -70 c 260
 -253 -70 -246 -72 -238 -75 c 4
 -230 -78 -224 -82 -218 -88 c 4
 -212 -94 -208 -100 -205 -108 c 4
 -202 -116 -200 -123 -200 -132 c 4
 -200 -141 -202 -149 -205 -156 c 4
 -208 -163 -212 -170 -218 -176 c 4
 -224 -182 -230 -186 -238 -189 c 4
 -246 -192 -253 -194 -262 -194 c 260
 -271 -194 -278 -192 -286 -189 c 4
 -294 -186 -301 -182 -306 -176 c 4
 -311 -170 -316 -163 -319 -156 c 4
 -322 -149 -323 -141 -323 -132 c 4
EndSplineSet
EndChar

StartChar: smajibu
Encoding: 45 60825 57
Width: 510
VWidth: 988
GlyphClass: 2
Flags: W
HStem: 224 74<50 460>
LayerCount: 2
Fore
SplineSet
50 298 m 1
 460 298 l 1
 460 224 l 1
 50 224 l 1
 50 298 l 1
EndSplineSet
Substitution2: "Single Substitution lookup 60 subtable" smajibu.fina
Substitution2: "Single Substitution lookup 59 subtable" smajibu.fina
Substitution2: "Single Substitution lookup 58 subtable" smajibu.fina
Substitution2: "Single Substitution lookup 56 subtable" smajibu.medi
Substitution2: "Single Substitution lookup 55 subtable" smajibu.medi
Substitution2: "Single Substitution lookup 54 subtable" smajibu.medi
Substitution2: "Single Substitution lookup 53 subtable" smajibu.medi
Substitution2: "Single Substitution lookup 52 subtable" smajibu.medi
Substitution2: "Single Substitution lookup 51 subtable" smajibu.medi
Substitution2: "Single Substitution lookup 49 subtable" smajibu.init
Substitution2: "Single Substitution lookup 48 subtable" smajibu.init
Substitution2: "Single Substitution lookup 47 subtable" smajibu.init
EndChar

StartChar: tcenabu
Encoding: 47 60827 59
Width: 0
VWidth: 988
GlyphClass: 4
Flags: W
HStem: -124 74<-510 0>
AnchorPoint: "Bottom" -263 0 mark 0
LayerCount: 2
Fore
SplineSet
-510 -50 m 1
 0 -50 l 1
 0 -124 l 1
 -510 -124 l 1
 -510 -50 l 1
EndSplineSet
EndChar

StartChar: abu
Encoding: 52 60832 64
Width: 0
VWidth: 988
GlyphClass: 4
Flags: W
HStem: 552 198<93.2146 176.912>
VStem: 80 110<590.75 750> 88 94<560.254 625.25>
AnchorPoint: "Top" 135 657 mark 0
LayerCount: 2
Fore
SplineSet
190 750 m 1xc0
 190 631 l 1xc0
 182 585 l 2
 180 569 153 552 135 552 c 0
 118 552 90 569 88 585 c 2xa0
 80 631 l 1
 80 750 l 1
 190 750 l 1xc0
EndSplineSet
MultipleSubs2: "Multiple Substitution lookup 62 subtable" denpabu abu
EndChar

StartChar: ebu
Encoding: 53 60833 65
Width: 0
VWidth: 988
GlyphClass: 4
Flags: W
HStem: 625 125<-130 130>
VStem: -130 260<625 750>
AnchorPoint: "Top" 0 657 mark 0
LayerCount: 2
Fore
SplineSet
-130 750 m 5
 130 750 l 1
 130 625 l 1
 -130 625 l 5
 -130 750 l 5
EndSplineSet
MultipleSubs2: "Multiple Substitution lookup 63 subtable" denpabu ebu
EndChar

StartChar: ibu
Encoding: 54 60834 66
Width: 0
VWidth: 988
GlyphClass: 4
Flags: W
HStem: 578 178<-58.1815 58.1815>
VStem: -89 178<608.818 725.182>
AnchorPoint: "Top" 0 657 mark 0
LayerCount: 2
Fore
SplineSet
-89 667 m 4
 -89 716 -49 756 0 756 c 4
 49 756 89 716 89 667 c 4
 89 618 49 578 0 578 c 4
 -49 578 -89 618 -89 667 c 4
EndSplineSet
MultipleSubs2: "Multiple Substitution lookup 64 subtable" denpabu ibu
Substitution2: "Single Substitution lookup 33 subtable" iy
Substitution2: "Single Substitution lookup 32 subtable" iy
Substitution2: "Single Substitution lookup 31 subtable" iy
Substitution2: "Single Substitution lookup 30 subtable" iy
Substitution2: "Single Substitution lookup 29 subtable" iy
Substitution2: "Single Substitution lookup 28 subtable" iy
Substitution2: "Single Substitution lookup 27 subtable" iy
Substitution2: "Single Substitution lookup 26 subtable" iy
Substitution2: "Single Substitution lookup 25 subtable" iy
Substitution2: "Single Substitution lookup 24 subtable" iy
Substitution2: "Single Substitution lookup 13 subtable" iy
Substitution2: "Single Substitution lookup 12 subtable" iy
Substitution2: "Single Substitution lookup 11 subtable" iy
Substitution2: "Single Substitution lookup 10 subtable" iy
Substitution2: "Single Substitution lookup 9 subtable" iy
Substitution2: "Single Substitution lookup 8 subtable" iy
Substitution2: "Single Substitution lookup 7 subtable" iy
Substitution2: "Single Substitution lookup 6 subtable" iy
Substitution2: "Single Substitution lookup 5 subtable" iy
Substitution2: "Single Substitution lookup 4 subtable" iy
EndChar

StartChar: obu
Encoding: 55 60835 67
Width: 0
VWidth: 988
GlyphClass: 4
Flags: W
HStem: 597 42<26.2733 45> 601 154<-139.341 -43.4888 46.3013 124.686>
VStem: -156 128<616.37 699.442> 15 130<648.052 737.871>
AnchorPoint: "Top" 0 657 mark 0
LayerCount: 2
Fore
SplineSet
45 639 m 1xb0
 15 639 -21.9716796875 755 -92 755 c 3
 -121.017578125 755 -156 735.080078125 -156 679 c 3
 -156 618.924804688 -128 601 -91 601 c 3x70
 -50.9501953125 601 -28 635 -28 659 c 3
 -28 682 -34 688 -41 700 c 1
 -16 698 9 597 70 597 c 3xb0
 99.4111328125 597 145 623 145 673 c 3
 145 723.776367188 124 755 73 755 c 1x70
 35.8203125 755 15.4580078125 720.998046875 15 694 c 0
 14.6435546875 673 34.34375 648.8359375 45 639 c 1xb0
EndSplineSet
MultipleSubs2: "Multiple Substitution lookup 65 subtable" denpabu obu
EndChar

StartChar: ubu
Encoding: 56 60836 68
Width: 0
VWidth: 988
GlyphClass: 4
Flags: W
HStem: 578 36<111.112 156.94> 730 20G<0 97 174 270>
VStem: -0 97<620.038 750> 174 96<624.281 750>
AnchorPoint: "Top" 135 657 mark 0
LayerCount: 2
Fore
SplineSet
134 614 m 259
 164 614 174 672 174 750 c 1
 270 750 l 1
 270 622 256 578 135 578 c 4
 6 578 -0 625 -0 750 c 1
 97 750 l 1
 97 674 101 614 134 614 c 259
EndSplineSet
MultipleSubs2: "Multiple Substitution lookup 66 subtable" denpabu ubu
Substitution2: "Single Substitution lookup 43 subtable" uy
Substitution2: "Single Substitution lookup 42 subtable" uy
Substitution2: "Single Substitution lookup 41 subtable" uy
Substitution2: "Single Substitution lookup 40 subtable" uy
Substitution2: "Single Substitution lookup 39 subtable" uy
Substitution2: "Single Substitution lookup 38 subtable" uy
Substitution2: "Single Substitution lookup 37 subtable" uy
Substitution2: "Single Substitution lookup 36 subtable" uy
Substitution2: "Single Substitution lookup 35 subtable" uy
Substitution2: "Single Substitution lookup 34 subtable" uy
Substitution2: "Single Substitution lookup 23 subtable" uy
Substitution2: "Single Substitution lookup 22 subtable" uy
Substitution2: "Single Substitution lookup 21 subtable" uy
Substitution2: "Single Substitution lookup 20 subtable" uy
Substitution2: "Single Substitution lookup 19 subtable" uy
Substitution2: "Single Substitution lookup 18 subtable" uy
Substitution2: "Single Substitution lookup 17 subtable" uy
Substitution2: "Single Substitution lookup 16 subtable" uy
Substitution2: "Single Substitution lookup 15 subtable" uy
Substitution2: "Single Substitution lookup 14 subtable" uy
EndChar

StartChar: ybu
Encoding: 57 60837 69
Width: 0
VWidth: 988
GlyphClass: 4
Flags: W
HStem: 566 42<-39.4491 38.5135> 707 43<-39.7211 38.5135>
VStem: -99 49<618.923 696.077> 49 50<618.923 696.077>
AnchorPoint: "Top" 0 657 mark 0
LayerCount: 2
Fore
SplineSet
-99 657 m 0
 -99 671 -96 684 -91 695 c 0
 -86 706 -79 716 -70 724 c 0
 -61 732 -51 739 -39 743 c 0
 -27 747 -14 750 -1 750 c 0
 13 750 25 747 37 743 c 0
 49 739 60 732 69 724 c 0
 78 716 86 706 91 695 c 0
 96 684 99 671 99 657 c 0
 99 643 96 631 91 620 c 0
 86 609 78 599 69 591 c 0
 60 583 49 577 37 573 c 0
 25 569 13 566 -1 566 c 0
 -14 566 -27 569 -39 573 c 0
 -51 577 -61 583 -70 591 c 0
 -79 599 -86 609 -91 620 c 0
 -96 631 -99 643 -99 657 c 0
-50 657 m 0
 -50 643 -46 631 -37 622 c 0
 -28 613 -15 608 0 608 c 0
 15 608 27 613 36 622 c 0
 45 631 49 643 49 657 c 0
 49 672 45 684 36 693 c 0
 27 702 15 707 0 707 c 0
 -15 707 -28 702 -37 693 c 0
 -46 684 -50 672 -50 657 c 0
EndSplineSet
MultipleSubs2: "Multiple Substitution lookup 67 subtable" denpabu ybu
EndChar

StartChar: aibu
Encoding: 58 60838 70
Width: 0
VWidth: 0
GlyphClass: 4
Flags: W
HStem: 569 39<-42 4.33428> 738 38<14.418 61>
VStem: -44 57<681.222 734.463> 6 58<611.127 667.254>
AnchorPoint: "Top" 0 657 mark 0
LayerCount: 2
Fore
SplineSet
13 711 m 0xe0
 13 705 16 699 21 694 c 0
 22 693 28 687 41 676 c 0
 47 670 52 663 57 656 c 0
 62 649 64 641 64 632 c 0
 64 623 61 615 56 607 c 0
 39 582 7 569 -42 569 c 1
 -42 608 l 1
 -10 608 6 618 6 635 c 0xd0
 6 640 4 646 -1 652 c 0
 -6 658 -12 664 -19 670 c 0
 -26 676 -32 683 -37 690 c 0
 -42 697 -44 705 -44 714 c 0
 -44 723 -42 731 -37 739 c 0
 -21 764 12 776 61 776 c 1
 61 738 l 1
 29 737 13 728 13 711 c 0xe0
EndSplineSet
MultipleSubs2: "Multiple Substitution lookup 68 subtable" denpabu aibu
Ligature2: "zlmVV subtable" abu ibu
LCarets2: 1 0
EndChar

StartChar: oibu
Encoding: 60 60840 72
Width: 0
VWidth: 988
GlyphClass: 4
Flags: W
HStem: 597 42<21.2537 45>
VStem: 15 130<648.052 737.871>
AnchorPoint: "Top" 0 657 mark 0
LayerCount: 2
Fore
SplineSet
45 639 m 1
 21.6085599664 639 -27 723 -27 723 c 1
 53.9990234375 842 l 1
 0 882 l 0
 -163 632 l 1
 -110 594 l 1
 -41 700 l 1
 -21 681 9 597 70 597 c 3
 99.4111328125 597 145 623 145 673 c 3
 145 723.776367188 124 755 73 755 c 1
 35.8203125 755 15.4580078125 720.998046875 15 694 c 0
 14.6435546875 673 34.34375 648.8359375 45 639 c 1
EndSplineSet
MultipleSubs2: "Multiple Substitution lookup 70 subtable" denpabu oibu
Ligature2: "zlmVV subtable" obu ibu
LCarets2: 1 0
EndChar

StartChar: aubu
Encoding: 61 60841 73
Width: 0
VWidth: 988
GlyphClass: 4
Flags: W
HStem: 650 110<-39.529 8.47824>
VStem: -55 112<666.518 739.388>
AnchorPoint: "Top" 0 658 mark 0
LayerCount: 2
Fore
SplineSet
-36 555 m 2
 -39 558 -41 562 -41 567 c 0
 -41 569 -40 570 -39 572 c 0
 -38 574 -37 576 -35 578 c 0
 -32 581 -29 584 -25 589 c 0
 -21 594 -16 600 -12 606 c 0
 -8 612 -4 618 0 626 c 0
 4 634 7 642 9 651 c 1
 7 651 6 650 4 650 c 0
 2 650 1 650 -1 650 c 0
 -17 650 -30 655 -40 666 c 0
 -50 677 -55 691 -55 707 c 0
 -55 722 -50 735 -40 745 c 0
 -30 755 -17 760 0 760 c 0
 19 760 32 753 42 740 c 0
 52 727 57 710 57 689 c 0
 57 663 50 638 36 613 c 0
 22 588 2 566 -23 544 c 1
 -36 555 l 2
EndSplineSet
MultipleSubs2: "Multiple Substitution lookup 71 subtable" denpabu aubu
Ligature2: "zlmVV subtable" abu ubu
LCarets2: 1 0
EndChar

StartChar: iy
Encoding: 62 60842 74
Width: 510
VWidth: 0
GlyphClass: 2
Flags: W
HStem: 0 21G<39.7812 211.787 297.362 470> 480 20G<164.662 345.2>
AnchorPoint: "Top" 255 657 basechar 0
AnchorPoint: "Bottom" 255 0 basechar 0
LayerCount: 2
Fore
SplineSet
39.78125 0 m 1
 169.865234375 500 l 1
 340 500 l 1
 470 0 l 1
 300 0 l 1
 269 235 l 2
 269 235 264 253 259 271 c 0
 256 283 253 294 250 306 c 1
 247 294 245 283 242 271 c 0
 238 256 233.206054688 243.240234375 231 235 c 0
 210 0 l 2
 39.78125 0 l 1
EndSplineSet
EndChar

StartChar: uniEDAC
Encoding: 272 60844 76
Width: 446
VWidth: 988
GlyphClass: 2
Flags: W
HStem: 0 69<132 406> 730 20G<188.958 277>
VStem: 188 89<212.256 750>
AnchorPoint: "Top" 230 659 basechar 0
AnchorPoint: "Bottom" 228 0 basechar 0
LayerCount: 2
Fore
SplineSet
132 69 m 0
 406 69 l 1
 406 0 l 1
 29 0 l 1
 29 37 l 2
 29 48 30.0631501485 53.8825866241 32 55 c 0
 136 115 187.874648581 218.83413022 188 278 c 2
 189 750 l 0
 277 750 l 1
 277 324 l 2
 277 256.750789571 242 140 174 83 c 0
 132 69 l 0
EndSplineSet
EndChar

StartChar: seplimeabu
Encoding: 68 60848 80
Width: 510
VWidth: 988
GlyphClass: 3
Flags: W
HStem: 0 21G<50 220> 454 46<220 460>
VStem: 50 170<0 454>
AnchorPoint: "Bottom" 256 0 basechar 0
LayerCount: 2
Fore
SplineSet
460 454 m 1
 220 454 l 1
 220 0 l 1
 50 0 l 5
 50 500 l 5
 460 500 l 1
 460 454 l 1
EndSplineSet
Ligature2: "zlmSF subtable" slakabu seplimeabu
LCarets2: 1 0
EndChar

StartChar: seplimeebu
Encoding: 69 60849 81
Width: 510
VWidth: 988
GlyphClass: 3
Flags: W
HStem: 0 21G<50 220> 237 46<220 460> 480 20G<50 220>
VStem: 50 170<0 237 283 500>
AnchorPoint: "Bottom" 255 0 basechar 0
LayerCount: 2
Fore
SplineSet
460 237 m 1
 220 237 l 1
 220 0 l 1
 50 0 l 5
 50 500 l 5
 220 500 l 0
 220 283 l 0
 460 283 l 1
 460 237 l 1
EndSplineSet
LCarets2: 1 0
Ligature2: "zlmSF subtable" slakabu seplimeebu
EndChar

StartChar: seplimeibu
Encoding: 70 60850 82
Width: 510
VWidth: 988
GlyphClass: 3
Flags: W
HStem: 0 21G<50 220 290 460> 454 46<220 290>
VStem: 50 170<0 454> 290 170<0 454>
AnchorPoint: "Bottom" 255 0 basechar 0
LayerCount: 2
Fore
SplineSet
460 -0 m 1
 290 0 l 0
 290 454 l 0
 220 454 l 1
 220 0 l 1
 50 0 l 5
 50 500 l 5
 460 500 l 1
 460 -0 l 1
EndSplineSet
LCarets2: 1 0
Ligature2: "zlmSF subtable" slakabu seplimeibu
EndChar

StartChar: seplimeobu
Encoding: 71 60851 83
Width: 510
VWidth: 988
GlyphClass: 3
Flags: W
HStem: 0 46<70 290> 480 20G<290 460>
VStem: 290 170<46 500>
AnchorPoint: "Bottom" 256 0 basechar 0
LayerCount: 2
Fore
SplineSet
70 46 m 1
 290 46 l 5
 290 500 l 5
 460 500 l 1
 460 0 l 1
 70 0 l 1
 70 46 l 1
EndSplineSet
LCarets2: 1 0
Ligature2: "zlmSF subtable" slakabu seplimeobu
EndChar

StartChar: seplimeubu
Encoding: 72 60852 84
Width: 510
VWidth: 988
GlyphClass: 3
Flags: W
HStem: 0 46<220 290> 480 20G<50 220 290 460>
VStem: 50 170<46 500> 290 170<46 500>
AnchorPoint: "Bottom" 255 0 basechar 0
LayerCount: 2
Fore
SplineSet
50 500 m 1
 220 500 l 0
 220 46 l 0
 290 46 l 1
 290 500 l 1
 460 500 l 5
 460 0 l 5
 50 0 l 1
 50 500 l 1
EndSplineSet
LCarets2: 1 0
Ligature2: "zlmSF subtable" slakabu seplimeubu
EndChar

StartChar: seplimeybu
Encoding: 73 60853 85
Width: 548
VWidth: 988
GlyphClass: 3
Flags: W
HStem: 0 21G<234 319> 225 71<70 234 319 487> 480 20G<234 319>
VStem: 234 85<0 224 296 500>
AnchorPoint: "Bottom" 277 0 basechar 0
LayerCount: 2
Fore
SplineSet
487 225 m 1
 319 225 l 1
 319 0 l 1
 234 0 l 1
 234 224 l 0
 70 224 l 0
 70 296 l 0
 234 296 l 0
 234 500 l 1
 319 500 l 0
 319 296 l 0
 487 296 l 1
 487 225 l 1
EndSplineSet
Ligature2: "zlmSF subtable" slakabu seplimeybu
EndChar

StartChar: seplimeaibu
Encoding: 74 60854 86
Width: 510
VWidth: 988
GlyphClass: 3
Flags: W
HStem: 0 46<220 460> 454 46<220 460>
VStem: 50 170<46 454>
AnchorPoint: "Bottom" 256 0 basechar 0
LayerCount: 2
Fore
SplineSet
460 454 m 1
 220 454 l 1
 220 46 l 0
 460 46 l 0
 460 0 l 1
 50 0 l 5
 50 500 l 5
 460 500 l 1
 460 454 l 1
EndSplineSet
LCarets2: 1 0
Ligature2: "zlmSFF subtable" slakabu seplimeaibu
Ligature2: "zlmFF subtable" seplimeabu seplimeibu
EndChar

StartChar: seplimeeibu
Encoding: 75 60855 87
Width: 427
VWidth: 988
GlyphClass: 3
Flags: W
HStem: -8 63<122.13 277.939> 443 65<156.164 311.026>
VStem: 46 84<327.196 417.268> 307 82<83.229 182.832>
AnchorPoint: "Bottom" 225 0 basechar 0
LayerCount: 2
Fore
SplineSet
361 418 m 2
 357 411 351 407 343 407 c 0
 338 407 332 409 326 413 c 0
 320 417 312 421 303 425 c 0
 294 429 284 433 271 437 c 0
 258 441 243 443 226 443 c 0
 211 443 198 441 186 437 c 0
 174 433 164 428 156 421 c 0
 148 414 141 407 137 398 c 0
 133 389 130 380 130 370 c 0
 130 357 134 347 141 338 c 0
 148 329 158 322 170 316 c 0
 182 310 197 304 212 299 c 0
 227 294 244 289 260 284 c 0
 276 279 292 273 307 266 c 0
 322 259 337 251 349 241 c 0
 361 231 371 219 378 205 c 0
 385 191 389 173 389 153 c 0
 389 130 385 109 377 89 c 0
 369 69 356 52 340 38 c 0
 324 24 304 12 281 4 c 0
 258 -4 231 -8 200 -8 c 0
 165 -8 133 -2 105 9 c 0
 77 20 53 35 33 53 c 1
 54 86 l 2
 57 90 59 94 63 96 c 0
 67 98 71 100 77 100 c 0
 83 100 89 98 96 93 c 0
 103 88 111 84 120 78 c 0
 129 72 140 67 154 62 c 0
 168 57 185 55 205 55 c 0
 222 55 237 58 250 62 c 0
 263 66 273 72 282 80 c 0
 291 88 297 96 301 106 c 0
 305 116 307 127 307 138 c 0
 307 152 303 163 296 172 c 0
 289 181 278 189 266 195 c 0
 254 201 241 207 225 212 c 0
 209 217 193 222 177 227 c 0
 161 232 145 238 129 245 c 0
 113 252 99 261 87 271 c 0
 75 281 65 294 58 309 c 0
 51 324 46 342 46 363 c 0
 46 382 50 400 58 418 c 0
 66 436 78 452 93 465 c 0
 108 478 127 489 149 497 c 0
 171 505 196 508 224 508 c 0
 257 508 287 503 313 493 c 0
 339 483 362 468 381 450 c 1
 361 418 l 2
EndSplineSet
Ligature2: "zlmSFF subtable" slakabu seplimeeibu
Ligature2: "zlmFF subtable" seplimeebu seplimeibu
EndChar

StartChar: seplimeoibu
Encoding: 76 60856 88
Width: 510
VWidth: 988
GlyphClass: 3
Flags: HW
HStem: 0 46<50 290> 454 46<50 290>
VStem: 290 170<46 454>
AnchorPoint: "Bottom" 254 0 basechar 0
LayerCount: 2
Fore
SplineSet
50 46 m 1
 290 46 l 1
 290 454 l 0
 50 454 l 0
 50 500 l 1
 460 500 l 1
 460 0 l 1
 50 0 l 1
 50 46 l 1
EndSplineSet
LCarets2: 1 0
Ligature2: "zlmSFF subtable" slakabu seplimeoibu
Ligature2: "zlmFF subtable" seplimeobu seplimeibu
EndChar

StartChar: seplimeaubu
Encoding: 77 60857 89
Width: 492
VWidth: 988
GlyphClass: 3
Flags: W
HStem: 0 21G<11 93.5 392.5 481> 480 20G<18 106.5 390.5 474>
AnchorPoint: "Bottom" 244 0 basechar 0
LayerCount: 2
Fore
SplineSet
481 0 m 1
 396 0 l 2
 389 0 383 2 379 6 c 0
 375 10 372 13 369 18 c 2
 243 214 l 1
 242 209 240 205 239 201 c 0
 238 197 236 193 233 189 c 2
 116 18 l 2
 113 13 109 10 105 6 c 0
 101 2 97 0 90 0 c 2
 11 0 l 1
 187 257 l 1
 18 500 l 1
 103 500 l 2
 110 500 116 499 119 497 c 0
 122 495 124 491 127 487 c 2
 250 299 l 1
 253 309 257 318 263 327 c 2
 371 485 l 2
 374 490 377 493 380 496 c 0
 383 499 388 500 393 500 c 2
 474 500 l 1
 305 261 l 1
 481 0 l 1
EndSplineSet
Ligature2: "zlmSFF subtable" slakabu seplimeaubu
Ligature2: "zlmFF subtable" seplimeabu seplimeubu
EndChar

StartChar: uniEDBC
Encoding: 278 60860 92
Width: 446
VWidth: 988
GlyphClass: 2
Flags: W
HStem: -250 21G<158 246> 431 69<29 302>
VStem: 158 88<-250 260.403>
AnchorPoint: "Top" 208 658 basechar 0
AnchorPoint: "Bottom" 203 0 basechar 0
LayerCount: 2
Fore
SplineSet
302 431 m 0
 29 431 l 1
 29 500 l 1
 406 500 l 1
 406 464 l 2
 406 453 404.936849852 446.117413376 403 445 c 0
 299 385 246 222 246 222 c 2
 246 -250 l 0
 158 -250 l 1
 158 176 l 2
 158 176 192 360 260 417 c 0
 302 431 l 0
EndSplineSet
EndChar

StartChar: bahebu_bahebu
Encoding: 78 -1 96
Width: 0
VWidth: 0
GlyphClass: 4
Flags: W
HStem: -194 124<-403.03 -308.583 -226.03 -131.583>
VStem: -417 123<-179.661 -84.3391> -240 123<-179.661 -84.3391>
AnchorPoint: "Bottom" -267 0 mark 0
LayerCount: 2
Fore
SplineSet
-417 -132 m 4
 -417 -123 -416 -116 -413 -108 c 4
 -410 -100 -405 -94 -400 -88 c 4
 -395 -82 -388 -78 -380 -75 c 4
 -372 -72 -365 -70 -356 -70 c 260
 -347 -70 -340 -72 -332 -75 c 4
 -324 -78 -318 -82 -312 -88 c 4
 -306 -94 -302 -100 -299 -108 c 4
 -296 -116 -294 -123 -294 -132 c 4
 -294 -141 -296 -149 -299 -156 c 4
 -302 -163 -306 -170 -312 -176 c 4
 -318 -182 -324 -186 -332 -189 c 4
 -340 -192 -347 -194 -356 -194 c 260
 -365 -194 -372 -192 -380 -189 c 4
 -388 -186 -395 -182 -400 -176 c 4
 -405 -170 -410 -163 -413 -156 c 4
 -416 -149 -417 -141 -417 -132 c 4
-240 -132 m 4
 -240 -123 -239 -116 -236 -108 c 4
 -233 -100 -228 -94 -223 -88 c 4
 -218 -82 -211 -78 -203 -75 c 4
 -195 -72 -188 -70 -179 -70 c 260
 -170 -70 -163 -72 -155 -75 c 4
 -147 -78 -141 -82 -135 -88 c 4
 -129 -94 -125 -100 -122 -108 c 4
 -119 -116 -117 -123 -117 -132 c 4
 -117 -141 -119 -149 -122 -156 c 4
 -125 -163 -129 -170 -135 -176 c 4
 -141 -182 -147 -186 -155 -189 c 4
 -163 -192 -170 -194 -179 -194 c 260
 -188 -194 -195 -192 -203 -189 c 4
 -211 -186 -218 -182 -223 -176 c 4
 -228 -170 -233 -163 -236 -156 c 4
 -239 -149 -240 -141 -240 -132 c 4
EndSplineSet
Ligature2: "zlmBahebu subtable" bahebu bahebu
LCarets2: 1 0
EndChar

StartChar: bahebu_bahebu_bahebu
Encoding: 79 -1 97
Width: 0
VWidth: 0
GlyphClass: 4
Flags: W
HStem: -313 124<-315.03 -220.583> -189 124<-404.03 -309.583 -227.03 -132.583>
VStem: -418 123<-174.661 -79.3391> -329 123<-298.661 -203.339> -241 123<-174.661 -79.3391>
AnchorPoint: "Bottom" -268 0 mark 0
LayerCount: 2
Fore
SplineSet
-329 -251 m 0x90
 -329 -242 -328 -235 -325 -227 c 0
 -322 -219 -317 -213 -312 -207 c 0
 -307 -201 -300 -197 -292 -194 c 0
 -284 -191 -277 -189 -268 -189 c 256
 -259 -189 -252 -191 -244 -194 c 0
 -236 -197 -230 -201 -224 -207 c 0
 -218 -213 -214 -219 -211 -227 c 0
 -208 -235 -206 -242 -206 -251 c 0
 -206 -260 -208 -268 -211 -275 c 0
 -214 -282 -218 -289 -224 -295 c 0
 -230 -301 -236 -305 -244 -308 c 0
 -252 -311 -259 -313 -268 -313 c 256
 -277 -313 -284 -311 -292 -308 c 0
 -300 -305 -307 -301 -312 -295 c 0
 -317 -289 -322 -282 -325 -275 c 0
 -328 -268 -329 -260 -329 -251 c 0x90
-418 -127 m 0x60
 -418 -118 -417 -111 -414 -103 c 0
 -411 -95 -406 -89 -401 -83 c 0
 -396 -77 -389 -73 -381 -70 c 0
 -373 -67 -366 -65 -357 -65 c 256
 -348 -65 -341 -67 -333 -70 c 0
 -325 -73 -319 -77 -313 -83 c 0
 -307 -89 -303 -95 -300 -103 c 0
 -297 -111 -295 -118 -295 -127 c 0
 -295 -136 -297 -144 -300 -151 c 0
 -303 -158 -307 -165 -313 -171 c 0
 -319 -177 -325 -181 -333 -184 c 0
 -341 -187 -348 -189 -357 -189 c 256
 -366 -189 -373 -187 -381 -184 c 0
 -389 -181 -396 -177 -401 -171 c 0
 -406 -165 -411 -158 -414 -151 c 0
 -417 -144 -418 -136 -418 -127 c 0x60
-241 -127 m 0x48
 -241 -118 -240 -111 -237 -103 c 0
 -234 -95 -229 -89 -224 -83 c 0
 -219 -77 -212 -73 -204 -70 c 0
 -196 -67 -189 -65 -180 -65 c 256
 -171 -65 -164 -67 -156 -70 c 0
 -148 -73 -142 -77 -136 -83 c 0
 -130 -89 -126 -95 -123 -103 c 0
 -120 -111 -118 -118 -118 -127 c 0
 -118 -136 -120 -144 -123 -151 c 0
 -126 -158 -130 -165 -136 -171 c 0
 -142 -177 -148 -181 -156 -184 c 0
 -164 -187 -171 -189 -180 -189 c 256
 -189 -189 -196 -187 -204 -184 c 0
 -212 -181 -219 -177 -224 -171 c 0
 -229 -165 -234 -158 -237 -151 c 0
 -240 -144 -241 -136 -241 -127 c 0x48
EndSplineSet
Ligature2: "zlmBahebu subtable" bahebu bahebu bahebu
LCarets2: 2 0 0
EndChar

StartChar: smajibu.init
Encoding: 48 -1 98
Width: 460
VWidth: 988
GlyphClass: 2
Flags: W
HStem: 224 74<50 470>
LayerCount: 2
Fore
SplineSet
50 298 m 1
 470 298 l 5
 470 224 l 5
 50 224 l 1
 50 298 l 1
EndSplineSet
EndChar

StartChar: smajibu.medi
Encoding: 49 -1 99
Width: 460
VWidth: 988
GlyphClass: 2
Flags: W
HStem: 224 74<-10 470>
LayerCount: 2
Fore
SplineSet
-10 298 m 1
 470 298 l 1
 470 224 l 1
 -10 224 l 1
 -10 298 l 1
EndSplineSet
EndChar

StartChar: smajibu.fina
Encoding: 50 -1 100
Width: 510
VWidth: 988
GlyphClass: 2
Flags: W
HStem: 224 74<-10 460>
LayerCount: 2
Fore
SplineSet
-10 298 m 1
 460 298 l 1
 460 224 l 1
 -10 224 l 1
 -10 298 l 1
EndSplineSet
EndChar

StartChar: denpabu.cas
Encoding: 51 -1 101
Width: 270
VWidth: 988
Flags: W
HStem: 220 45<158.406 219.89> 480 20G<317.686 320.204>
VStem: 50.001 169.999<294.222 409.325>
AnchorPoint: "Top" 135 657 basechar 0
AnchorPoint: "Bottom" 138 0 basechar 0
LayerCount: 2
Fore
SplineSet
166 220 m 3
 137.982148548 220 50.0009765625 233.958007812 50.0009765625 342 c 3
 50.0009765625 403.00018856 87.9999999996 437.973431396 132 437.973632812 c 0
 192 437.973907471 220 396 220 358 c 3
 220 291.646484375 184 279 158 265 c 1
 286 264 315.372070312 487.2734375 320 500 c 1
 321 402 l 1
 321 402 284.004237212 220 166 220 c 3
EndSplineSet
EndChar

StartChar: yhy.cas
Encoding: 67 -1 109
Width: 270
VWidth: 988
Flags: W
HStem: -0 21G<49.8652 220> 480 20G<49.8652 220>
VStem: 49.8652 170.135<0 500>
AnchorPoint: "Top" 136 657.658 basechar 0
AnchorPoint: "Bottom" 135 0 basechar 0
LayerCount: 2
Fore
SplineSet
220 500 m 1
 220 0 l 1
 49.865234375 -0 l 1
 49.865234375 500 l 1
 220 500 l 1
EndSplineSet
EndChar

StartChar: NameMe.89
Encoding: 89 -1 110
Width: 510
VWidth: 988
Flags: W
HStem: -7 70<229.948 278.529> 427.974 20G<132 200> 480 20G<290 460>
VStem: 37.6641 170.336<96.7385 327.821> 290 170<83.3069 500>
AnchorPoint: "Top" 254 657.658 basechar 0
AnchorPoint: "Bottom" 256 0 basechar 0
LayerCount: 2
Fore
SplineSet
269 390.973632812 m 5
 253 340.973632812 l 7
 220 340.973632812 208 288.053710938 208 204 c 7
 208 141 221 63 252 63 c 4
 285 63 290 104 290 171 c 6
 290 370 l 5
 290 445 l 5
 290 500 l 5
 460 500 l 5
 460 215 l 6
 460 34 391.588867188 -7 251 -7 c 4
 119 -7 37.6640625 42.9951171875 37.6640625 232 c 7
 37.6640625 389.005859375 88.9990234375 447.973632812 175 447.973632812 c 7
 225 447.973632812 248.01171875 426 269 390.973632812 c 5
EndSplineSet
EndChar

StartChar: NameMe.90
Encoding: 90 -1 111
Width: 510
VWidth: 988
Flags: W
HStem: -7 70<226.246 278.529> 260 188<78.2037 191.887> 480 20G<290 460>
VStem: 37.6641 182.336<98.0932 200.823> 290 170<83.3069 500>
AnchorPoint: "Top" 254 657.658 basechar 0
AnchorPoint: "Bottom" 256 0 basechar 0
LayerCount: 2
Fore
SplineSet
230 342 m 3
 230 261.900390625 117.052734375 260 72 260 c 1
 189.721679688 237.567382812 220 189.461012582 220 144 c 3
 220 102 221 63 252 63 c 0
 285 63 290 104 290 171 c 2
 290 370 l 1
 290 445 l 1
 290 500 l 1
 460 500 l 1
 460 215 l 2
 460 34 391.588867188 -7 251 -7 c 0
 119 -7 37.6640625 42.9951171875 37.6640625 232 c 3
 37.6640625 389.005859375 56.9990234375 448 143 448 c 3
 206.883789062 448 230 414.4375 230 342 c 3
EndSplineSet
EndChar

StartChar: NameMe.86
Encoding: 86 -1 112
Width: 510
VWidth: 988
Flags: W
HStem: 0 21G<50 191.5 290 460> 417.974 20G<323.924 460> 480 20G<50 220>
VStem: 50 170<1.46863 36.7204 139 500> 290 170<0 300.225 418.043 435.82>
AnchorPoint: "Top" 254 657.658 basechar 0
AnchorPoint: "Bottom" 248 0 basechar 0
LayerCount: 2
Fore
SplineSet
292 300.973632812 m 1
 218 17 l 2
 215 4 199 0 184 0 c 27
 132 0 50 0 50 0 c 1
 50 500 l 1
 220 500 l 1
 220 187 l 2
 220 181.619140625 219 172 219 164 c 0
 219 156 218 147 218 139 c 1
 296 421.973632812 l 2
 299.866284748 436 318.84767342 437.973632812 329 437.973632812 c 0
 460 437.973632812 l 1
 460 0 l 1
 290 0 l 1
 290 254.973632812 l 2
 290 270.973632812 291 284.973632812 292 300.973632812 c 1
EndSplineSet
EndChar

StartChar: NameMe.91
Encoding: 91 -1 113
Width: 510
VWidth: 988
Flags: W
HStem: 0 21G<50 220 289.981 460> 320.601 70.4258<226.789 278.933>
VStem: 50 170<0 315.038 344 437.974> 290 170<0 315.947 368 500>
AnchorPoint: "Bottom" 257 0 basechar 0
AnchorPoint: "Top" 255 657.658 basechar 0
LayerCount: 2
Fore
SplineSet
290 540 m 1
 460 500 l 1
 460 0 l 1
 290 0 l 1
 290 0 289.78125 43.9736328125 289.78125 235 c 1
 289.89453125 234 287.78125 320.600585938 257.78125 320.600585938 c 0
 232.78125 320.600585938 219.78125 285 219.78125 285 c 1
 219.78125 93.9736328125 220 0 220 0 c 1
 50 0 l 1
 50 477.973632812 l 1
 220 437.973632812 l 1
 219.78125 344 l 1
 219.78125 344 219.78125 391.026367188 256.78125 391.026367188 c 0
 287.263671875 391.026367188 289.78125 368 289.78125 368 c 1
 290 540 l 1
EndSplineSet
EndChar

StartChar: NameMe.92
Encoding: 92 -1 114
Width: 510
VWidth: 988
Flags: W
HStem: 43.9736 70.4258<230.63 282.774> 480 20G<49.7793 219.779 289.779 459.998>
VStem: 49.7793 170.002<-170 67 119.053 500> 289.781 170.219<-0.0263672 91 119.962 500>
AnchorPoint: "Bottom" 283 0 basechar 0
AnchorPoint: "Top" 254 657.316 basechar 0
LayerCount: 2
Fore
SplineSet
289.78125 91 m 1
 289.78125 91 289.78125 43.9736328125 252.78125 43.9736328125 c 0
 222.298828125 43.9736328125 219.78125 67 219.78125 67 c 1
 220 -210 l 1
 50 -170 l 1
 49.779296875 500 l 1
 54.779296875 500 l 1
 219.779296875 500 l 1
 219.78125 200 l 1
 219.66796875 201 221.78125 114.399414062 251.78125 114.399414062 c 0
 276.78125 114.399414062 289.78125 150 289.78125 150 c 1
 289.779296875 500 l 1
 459.998046875 500 l 1
 460 -40 l 1
 289.779296875 -0.0263671875 l 1
 289.78125 91 l 1
EndSplineSet
EndChar

StartChar: NameMe.87
Encoding: 87 -1 115
Width: 510
VWidth: 988
Flags: W
HStem: 422 78<256.632 290>
VStem: 50 170<0 290.451> 290 170<-169.467 422>
AnchorPoint: "Bottom" 206 0 basechar 0
AnchorPoint: "Top" 255 656.658 basechar 0
LayerCount: 2
Fore
SplineSet
299 500 m 4
 339 500 420 500 460 500 c 5
 460 423 l 6
 460 -169.466796875 l 5
 290 -209.466796875 l 5
 290 422 l 5
 286 422 l 6
 220 422 220 252 220 -0 c 5
 50 -40 l 5
 50.78125 397 58.822265625 500 299 500 c 4
EndSplineSet
EndChar

StartChar: NameMe.88
Encoding: 88 -1 116
Width: 510
VWidth: 988
Flags: W
HStem: -7 68<232.163 276.281> 440 68<231.778 276.951>
VStem: 37.6641 170.336<105.503 399.977> 301.12 170.323<284 398.754>
AnchorPoint: "Top" 255 658 basechar 0
AnchorPoint: "Bottom" 255 0 basechar 0
LayerCount: 2
Fore
SplineSet
471.443359375 284 m 1
 464.43359375 448.18359375 393.80859375 508 255 508 c 3
 100.962890625 508 37.6640625 440.018554688 37.6640625 250 c 3
 37.6640625 61.9921875 107 -7 255 -7 c 3
 391.282226562 -7 459.302734375 49.0498046875 470.377929688 204 c 1
 300.844726562 214 l 1
 297.1796875 135.301757812 284.418945312 61 255 61 c 3
 220 61 208 144.887695312 208 250 c 0
 208 357.970703125 220 440 255 440 c 3
 286.345703125 440 297.7265625 367.706054688 301.120117188 274 c 1
 471.443359375 284 l 1
471.443359375 284 m 1025
301.120117188 274 m 1025
EndSplineSet
EndChar

StartChar: NameMe.100
Encoding: 100 -1 117
Width: 510
VWidth: 988
Flags: W
HStem: 0 46<220 316.982> 309 199<295.87 396.975> 480 20G<50 220>
VStem: 50 170<46 500> 418 42<184.42 353>
AnchorPoint: "Top" 255 656.658 basechar 0
AnchorPoint: "Bottom" 206 0 basechar 0
LayerCount: 2
Fore
SplineSet
211 0 m 4xd8
 171 0 90 0 50 0 c 5
 50 77 l 6
 50 500 l 5
 220 500 l 5xb8
 220 46 l 5
 224 46 l 6
 344 46 418 118 418 353 c 5
 401.845703125 328.7734375 374.009765625 309 352 309 c 7
 309 309 260 347.012695312 260 402 c 7
 260 479.05859375 308 508 360 508 c 7
 415.973632812 508 460 442.680296931 460 389 c 7
 460 43.9637700183 344 0 211 0 c 4xd8
EndSplineSet
EndChar

StartChar: NameMe.101
Encoding: 101 -1 118
Width: 510
VWidth: 988
Flags: W
HStem: 0 21G<49.9946 220 290 460> 438 70<240 382> 480 20G<49.8697 220>
VStem: 50 170<0 369 434 499> 290 170<0 435.67>
AnchorPoint: "Top" 255 657.658 basechar 0
AnchorPoint: "Bottom" 257 0 basechar 0
LayerCount: 2
Fore
SplineSet
220 434 m 1xb8
 220 434 245 508 323 508 c 0
 441 508 460 431.732421875 460 319 c 2
 460 0 l 1
 290 0 l 1
 290 319 l 2
 290 392.572265625 290 438 258 438 c 0xd8
 222 438 220 369 220 369 c 1
 220 0 l 1
 50 0 l 5
 49.8642578125 500 l 1
 220 499 l 1
 220 434 l 1xb8
EndSplineSet
EndChar

StartChar: NameMe.102
Encoding: 102 -1 119
Width: 510
VWidth: 988
Flags: W
HStem: 0 21G<50 160.5 290 460> 480 20G<50 220 354.699 460>
VStem: 50 170<208 500> 290 170<0 287.974>
AnchorPoint: "Top" 254 657.658 basechar 0
AnchorPoint: "Bottom" 248 0 basechar 0
LayerCount: 2
Fore
SplineSet
220 98 m 2
 200.747461824 43 186 0 135 -0 c 2
 135 -0 67 0 50 0 c 1
 50 500 l 1
 220 500 l 1
 220 208 l 2
 290 398 l 2
 311.984105589 460.811730254 334.398860559 500 375 500 c 2
 375 500 424 500 460 500 c 1
 460 0 l 1
 290 0 l 1
 290 287.973632812 l 6
 220 98 l 2
EndSplineSet
EndChar

StartChar: NameMe.103
Encoding: 103 -1 120
Width: 510
VWidth: 988
Flags: W
HStem: -6.91699 49.917<137.227 253.478> 315 192.974<106.005 222.99> 480 20G<290 460>
VStem: 37.6641 39.6846<126.664 368.934> 290 170<110.833 500>
AnchorPoint: "Top" 254 657.658 basechar 0
AnchorPoint: "Bottom" 256 0 basechar 0
LayerCount: 2
Fore
SplineSet
253 412 m 3xd8
 253 369.988096925 234.06161783 315 161 315 c 3xd8
 110.990001 315 98 340 85 370 c 1
 79 342 77.3486328125 301.211914062 77.3486328125 287 c 3
 77.3486328125 98.9326171875 124.993179649 43 201 43 c 3
 261 43 290 104 290 171 c 2
 290 370 l 1
 290 445 l 1
 290 500 l 1
 460 500 l 1xb8
 460 295 l 2
 460 52 400 -6.9169921875 230 -6.9169921875 c 3
 105 -6.9169921875 37.6640625 57 37.6640625 295 c 7
 37.6640625 391.9765625 66.9990234375 507.973632812 163 507.973632812 c 7
 227 507.973632812 253 460.007860352 253 412 c 3xd8
EndSplineSet
EndChar

StartChar: NameMe.104
Encoding: 104 -1 121
Width: 510
VWidth: 988
Flags: W
HStem: 0 21G<50 220 290 460> 479.974 20G<50 220 290 460>
VStem: 50 170<0 277.974 338 499.974> 290 170<0 258 318 500>
AnchorPoint: "Bottom" 257 0 basechar 0
AnchorPoint: "Top" 255 657.658 basechar 0
LayerCount: 2
Fore
SplineSet
290 345 m 3
 290 379.436846821 277.000066414 392.944727435 254.000000503 392.944727435 c 27
 230.999933586 392.944727435 220 368 220 344.973632812 c 27
 220 210 220 0 220 0 c 1
 50 0 l 1
 50 499.973632812 l 1
 220 499.973632812 l 0
 220 405 l 3
 220 440.156034396 232.999033447 448.793773724 254.999998928 448.793773724 c 3
 277 448.793773724 290 442.60558051 290 405 c 11
 290 442 290 500 290 500 c 1
 460 500 l 1
 460 0 l 1
 460 0 342 0 290 0 c 27
 290 345 l 3
EndSplineSet
EndChar

StartChar: NameMe.105
Encoding: 105 -1 122
Width: 510
VWidth: 988
Flags: W
HStem: 0 46<220 316.982> 309 199<295.87 396.975>
VStem: 50 170<46 688> 418 42<184.42 353>
AnchorPoint: "Top" 352 656.658 basechar 0
AnchorPoint: "Bottom" 206 0 basechar 0
LayerCount: 2
Fore
SplineSet
211 0 m 0
 171 0 90 0 50 0 c 1
 50 77 l 2
 50 688 l 1
 220 728 l 1
 220 46 l 1
 224 46 l 2
 344 46 418 118 418 353 c 1
 401.845703125 328.7734375 374.009765625 309 352 309 c 3
 309 309 260 347.012695312 260 402 c 3
 260 479.05859375 308 508 360 508 c 3
 415.973632812 508 460 442.680296931 460 389 c 3
 460 43.9637700183 344 0 211 0 c 0
EndSplineSet
EndChar

StartChar: NameMe.106
Encoding: 106 -1 123
Width: 510
VWidth: 988
Flags: W
HStem: 0 21G<49.9973 220 290 460> 438 70<240 382>
VStem: 50 170<0 369 434 688> 290 170<0 435.67>
AnchorPoint: "Top" 342 656.658 basechar 0
AnchorPoint: "Bottom" 257 0 basechar 0
LayerCount: 2
Fore
SplineSet
220 434 m 1
 220 434 245 508 323 508 c 0
 441 508 460 431.732421875 460 319 c 2
 460 0 l 1
 290 0 l 1
 290 319 l 2
 290 392.572265625 290 438 258 438 c 0
 222 438 220 369 220 369 c 1
 220 0 l 1
 50 0 l 1
 49.90625 688 l 1
 220.041992188 728 l 1
 220 434 l 1
EndSplineSet
EndChar

StartChar: NameMe.107
Encoding: 107 -1 124
Width: 510
VWidth: 988
Flags: W
HStem: 0 21G<50 160.5 290 460> 480 20G<354.699 460>
VStem: 50 170<208 688> 290 170<0 287.974>
AnchorPoint: "Top" 377 656.658 basechar 0
AnchorPoint: "Bottom" 248 0 basechar 0
LayerCount: 2
Fore
SplineSet
220 98 m 2
 200.747461824 43 186 0 135 -0 c 2
 135 -0 67 0 50 0 c 1
 50 688 l 1
 220 728 l 1
 220 208 l 2
 290 398 l 2
 311.984105589 460.811730254 334.398860559 500 375 500 c 2
 375 500 424 500 460 500 c 1
 460 0 l 1
 290 0 l 1
 290 287.973632812 l 2
 220 98 l 2
EndSplineSet
EndChar

StartChar: NameMe.108
Encoding: 108 -1 125
Width: 510
VWidth: 988
Flags: W
HStem: -6.91699 49.917<137.227 253.478> 315 192.974<106.005 222.99>
VStem: 37.6641 39.6846<126.664 368.934> 290 170<149.303 688>
AnchorPoint: "Top" 158 656.658 basechar 0
AnchorPoint: "Bottom" 256 0 basechar 0
LayerCount: 2
Fore
SplineSet
253 412 m 3
 253 369.988096925 234.06161783 315 161 315 c 3
 110.990001 315 98 340 85 370 c 1
 79 342 77.3486328125 301.211914062 77.3486328125 287 c 3
 77.3486328125 98.9326171875 124.993179649 43 201 43 c 3
 261 43 290 104 290 171 c 2
 290 370 l 1
 290 445 l 1
 290 728 l 1
 460 688 l 1
 460 295 l 2
 460 137.457193719 400 -6.9169921875 230 -6.9169921875 c 3
 105 -6.9169921875 37.6640625 57 37.6640625 295 c 3
 37.6640625 391.9765625 66.9990234375 507.973632812 163 507.973632812 c 3
 227 507.973632812 253 460.007860352 253 412 c 3
EndSplineSet
EndChar

StartChar: NameMe.109
Encoding: 109 -1 126
Width: 510
VWidth: 988
Flags: W
HStem: 0 21G<50 220 290 460> 392.945 55.849<225.184 286.298> 479.974 20G<50 220>
VStem: 50 170<0 390.082 405 499.974> 220 70<344.974 368 405 448.794> 290 170<0 390.623 405 688>
AnchorPoint: "Bottom" 257 0 basechar 0
AnchorPoint: "Top" 138 657.658 basechar 0
LayerCount: 2
Fore
SplineSet
290 345 m 3xe8
 290 379.436846821 277.000066414 392.944727435 254.000000503 392.944727435 c 27
 230.999933586 392.944727435 220 368 220 344.973632812 c 27
 220 210 220 0 220 0 c 1
 50 0 l 1
 50 499.973632812 l 1
 220 499.973632812 l 0
 220 405 l 3xf0
 220 440.156034396 232.999033447 448.793773724 254.999998928 448.793773724 c 3
 277 448.793773724 290 442.60558051 290 405 c 11xe8
 290 442 290 728 290 728 c 1
 460 688 l 1
 460 0 l 1
 460 0 342 0 290 0 c 27xe4
 290 345 l 3xe8
EndSplineSet
EndChar
